G04*
G04 #@! TF.GenerationSoftware,Altium Limited,Altium Designer,20.2.6 (244)*
G04*
G04 Layer_Color=255*
%FSLAX43Y43*%
%MOMM*%
G71*
G04*
G04 #@! TF.SameCoordinates,70A9E041-225B-441C-BFEB-4F53169E124C*
G04*
G04*
G04 #@! TF.FilePolarity,Positive*
G04*
G01*
G75*
%ADD20R,1.130X1.130*%
%ADD21C,1.130*%
%ADD22C,1.750*%
%ADD23C,1.524*%
%ADD24C,1.500*%
%ADD25C,1.750*%
%ADD26R,1.500X1.500*%
D20*
X6111Y20364D02*
D03*
D21*
Y22904D02*
D03*
Y25444D02*
D03*
Y27984D02*
D03*
Y30524D02*
D03*
Y33064D02*
D03*
Y35604D02*
D03*
Y38144D02*
D03*
X14051D02*
D03*
Y35604D02*
D03*
Y33064D02*
D03*
Y30524D02*
D03*
Y27984D02*
D03*
Y25444D02*
D03*
Y22904D02*
D03*
Y20364D02*
D03*
D22*
X46589Y3048D02*
D03*
X41509D02*
D03*
X36429D02*
D03*
X46589Y18748D02*
D03*
X41509D02*
D03*
X36429D02*
D03*
D23*
X34575Y7801D02*
D03*
Y14024D02*
D03*
X22205Y3099D02*
D03*
X17125D02*
D03*
X58527Y38506D02*
D03*
X58501Y1499D02*
D03*
X1529D02*
D03*
X1555Y38506D02*
D03*
D24*
X27988Y17580D02*
D03*
X17988D02*
D03*
X27988Y10950D02*
D03*
X17988D02*
D03*
X17905Y14176D02*
D03*
X27905D02*
D03*
X3409Y3048D02*
D03*
Y5588D02*
D03*
Y8128D02*
D03*
Y10668D02*
D03*
Y13208D02*
D03*
Y15748D02*
D03*
Y18288D02*
D03*
Y20828D02*
D03*
Y23368D02*
D03*
Y25908D02*
D03*
Y28448D02*
D03*
Y30988D02*
D03*
Y33528D02*
D03*
D25*
X44023Y21288D02*
D03*
X41483D02*
D03*
X38943D02*
D03*
X26243D02*
D03*
X28783D02*
D03*
X31323D02*
D03*
X33863D02*
D03*
X36403D02*
D03*
D26*
X3409Y36068D02*
D03*
M02*
