G04*
G04 #@! TF.GenerationSoftware,Altium Limited,Altium Designer,20.2.6 (244)*
G04*
G04 Layer_Physical_Order=1*
G04 Layer_Color=255*
%FSLAX43Y43*%
%MOMM*%
G71*
G04*
G04 #@! TF.SameCoordinates,70A9E041-225B-441C-BFEB-4F53169E124C*
G04*
G04*
G04 #@! TF.FilePolarity,Positive*
G04*
G01*
G75*
%ADD12C,0.254*%
%ADD20R,1.130X1.130*%
%ADD21C,1.130*%
%ADD22C,1.750*%
%ADD23C,1.524*%
%ADD24C,1.500*%
%ADD25C,1.750*%
%ADD26R,1.500X1.500*%
G36*
X59995Y1655D02*
X59868Y1647D01*
X59841Y1852D01*
X59704Y2181D01*
X59487Y2464D01*
X59204Y2681D01*
X58875Y2818D01*
X58522Y2864D01*
X58168Y2818D01*
X57839Y2681D01*
X57656Y2541D01*
X57552Y2621D01*
X57620Y2786D01*
X57655Y3048D01*
X57620Y3310D01*
X57519Y3554D01*
X57358Y3764D01*
X57148Y3925D01*
X56904Y4026D01*
X56642Y4061D01*
X56380Y4026D01*
X56136Y3925D01*
X55926Y3764D01*
X55765Y3554D01*
X55664Y3310D01*
X55629Y3048D01*
X55664Y2786D01*
X55765Y2542D01*
X55926Y2332D01*
X56136Y2171D01*
X56380Y2070D01*
X56642Y2035D01*
X56904Y2070D01*
X57148Y2171D01*
X57220Y2226D01*
X57324Y2146D01*
X57202Y1852D01*
X57156Y1499D01*
X57202Y1145D01*
X57339Y816D01*
X57556Y533D01*
X57839Y316D01*
X58168Y179D01*
X58522Y133D01*
X58875Y179D01*
X59204Y316D01*
X59487Y533D01*
X59704Y816D01*
X59841Y1145D01*
X59868Y1351D01*
X59995Y1342D01*
Y0D01*
X0D01*
Y40005D01*
X59995D01*
Y1655D01*
D02*
G37*
%LPC*%
G36*
X53939Y38970D02*
X53726Y38942D01*
X53526Y38859D01*
X53355Y38728D01*
X53224Y38557D01*
X53141Y38358D01*
X53113Y38144D01*
X53141Y37930D01*
X53224Y37731D01*
X53355Y37560D01*
X53526Y37429D01*
X53726Y37346D01*
X53939Y37318D01*
X54153Y37346D01*
X54352Y37429D01*
X54524Y37560D01*
X54655Y37731D01*
X54737Y37930D01*
X54765Y38144D01*
X54737Y38358D01*
X54655Y38557D01*
X54524Y38728D01*
X54352Y38859D01*
X54153Y38942D01*
X53939Y38970D01*
D02*
G37*
G36*
X45999D02*
X45786Y38942D01*
X45586Y38859D01*
X45415Y38728D01*
X45284Y38557D01*
X45201Y38358D01*
X45173Y38144D01*
X45201Y37930D01*
X45284Y37731D01*
X45415Y37560D01*
X45586Y37429D01*
X45786Y37346D01*
X45999Y37318D01*
X46213Y37346D01*
X46412Y37429D01*
X46584Y37560D01*
X46715Y37731D01*
X46797Y37930D01*
X46825Y38144D01*
X46797Y38358D01*
X46715Y38557D01*
X46584Y38728D01*
X46412Y38859D01*
X46213Y38942D01*
X45999Y38970D01*
D02*
G37*
G36*
X58496Y39872D02*
X58143Y39826D01*
X57813Y39689D01*
X57531Y39472D01*
X57313Y39189D01*
X57177Y38860D01*
X57131Y38506D01*
X57177Y38153D01*
X57313Y37824D01*
X57531Y37541D01*
X57813Y37324D01*
X58143Y37187D01*
X58496Y37141D01*
X58850Y37187D01*
X59179Y37324D01*
X59462Y37541D01*
X59679Y37824D01*
X59815Y38153D01*
X59862Y38506D01*
X59815Y38860D01*
X59679Y39189D01*
X59462Y39472D01*
X59179Y39689D01*
X58850Y39826D01*
X58496Y39872D01*
D02*
G37*
G36*
X1524D02*
X1171Y39826D01*
X841Y39689D01*
X558Y39472D01*
X341Y39189D01*
X205Y38860D01*
X158Y38506D01*
X205Y38153D01*
X341Y37824D01*
X558Y37541D01*
X841Y37324D01*
X1171Y37187D01*
X1524Y37141D01*
X1877Y37187D01*
X2207Y37324D01*
X2490Y37541D01*
X2707Y37824D01*
X2843Y38153D01*
X2890Y38506D01*
X2843Y38860D01*
X2707Y39189D01*
X2490Y39472D01*
X2207Y39689D01*
X1877Y39826D01*
X1524Y39872D01*
D02*
G37*
G36*
X57646Y37072D02*
X55638D01*
Y35064D01*
X57646D01*
Y37072D01*
D02*
G37*
G36*
X53939Y36430D02*
X53726Y36402D01*
X53526Y36319D01*
X53355Y36188D01*
X53224Y36017D01*
X53141Y35818D01*
X53113Y35604D01*
X53141Y35390D01*
X53224Y35191D01*
X53355Y35020D01*
X53526Y34889D01*
X53726Y34806D01*
X53939Y34778D01*
X54153Y34806D01*
X54352Y34889D01*
X54524Y35020D01*
X54655Y35191D01*
X54737Y35390D01*
X54765Y35604D01*
X54737Y35818D01*
X54655Y36017D01*
X54524Y36188D01*
X54352Y36319D01*
X54153Y36402D01*
X53939Y36430D01*
D02*
G37*
G36*
X45999D02*
X45786Y36402D01*
X45586Y36319D01*
X45415Y36188D01*
X45284Y36017D01*
X45201Y35818D01*
X45173Y35604D01*
X45201Y35390D01*
X45284Y35191D01*
X45415Y35020D01*
X45586Y34889D01*
X45786Y34806D01*
X45999Y34778D01*
X46213Y34806D01*
X46412Y34889D01*
X46584Y35020D01*
X46715Y35191D01*
X46797Y35390D01*
X46825Y35604D01*
X46797Y35818D01*
X46715Y36017D01*
X46584Y36188D01*
X46412Y36319D01*
X46213Y36402D01*
X45999Y36430D01*
D02*
G37*
G36*
X56642Y34541D02*
X56380Y34506D01*
X56136Y34405D01*
X55926Y34244D01*
X55765Y34034D01*
X55664Y33790D01*
X55629Y33528D01*
X55664Y33266D01*
X55765Y33022D01*
X55926Y32812D01*
X56136Y32651D01*
X56380Y32550D01*
X56642Y32515D01*
X56904Y32550D01*
X57148Y32651D01*
X57358Y32812D01*
X57519Y33022D01*
X57620Y33266D01*
X57655Y33528D01*
X57620Y33790D01*
X57519Y34034D01*
X57358Y34244D01*
X57148Y34405D01*
X56904Y34506D01*
X56642Y34541D01*
D02*
G37*
G36*
X53939Y33890D02*
X53726Y33862D01*
X53526Y33779D01*
X53355Y33648D01*
X53224Y33477D01*
X53141Y33278D01*
X53113Y33064D01*
X53141Y32850D01*
X53224Y32651D01*
X53355Y32480D01*
X53502Y32367D01*
X53483Y32267D01*
X53469Y32240D01*
X46470D01*
X46456Y32267D01*
X46436Y32367D01*
X46584Y32480D01*
X46715Y32651D01*
X46797Y32850D01*
X46825Y33064D01*
X46797Y33278D01*
X46715Y33477D01*
X46584Y33648D01*
X46412Y33779D01*
X46213Y33862D01*
X45999Y33890D01*
X45786Y33862D01*
X45586Y33779D01*
X45415Y33648D01*
X45284Y33477D01*
X45201Y33278D01*
X45173Y33064D01*
X45201Y32850D01*
X45284Y32651D01*
X45415Y32480D01*
X45562Y32367D01*
X45543Y32267D01*
X45529Y32240D01*
X34975D01*
X34826Y32210D01*
X34700Y32126D01*
X24636Y22063D01*
X24602Y22043D01*
X24494Y22039D01*
X24453Y22093D01*
X24217Y22274D01*
X23942Y22388D01*
X23647Y22427D01*
X23353Y22388D01*
X23078Y22274D01*
X22842Y22093D01*
X22661Y21857D01*
X22547Y21583D01*
X22509Y21288D01*
X22547Y20993D01*
X22661Y20719D01*
X22842Y20483D01*
X23078Y20302D01*
X23353Y20188D01*
X23647Y20149D01*
X23942Y20188D01*
X24217Y20302D01*
X24388Y20433D01*
X24515Y20371D01*
Y20190D01*
X24316Y19992D01*
X24316Y19992D01*
X24290Y19975D01*
X24251Y19957D01*
X24200Y19939D01*
X24135Y19922D01*
X24058Y19907D01*
X23971Y19896D01*
X23753Y19883D01*
X23657Y19882D01*
X23622Y19887D01*
X23327Y19848D01*
X23053Y19734D01*
X22817Y19553D01*
X22636Y19317D01*
X22522Y19043D01*
X22483Y18748D01*
X22522Y18453D01*
X22636Y18179D01*
X22817Y17943D01*
X23053Y17762D01*
X23327Y17648D01*
X23622Y17609D01*
X23917Y17648D01*
X24191Y17762D01*
X24427Y17943D01*
X24608Y18179D01*
X24722Y18453D01*
X24761Y18748D01*
X24756Y18783D01*
X24757Y18879D01*
X24770Y19097D01*
X24781Y19184D01*
X24796Y19261D01*
X24813Y19326D01*
X24831Y19377D01*
X24849Y19416D01*
X24866Y19442D01*
X24866Y19442D01*
X25178Y19755D01*
X25262Y19881D01*
X25292Y20029D01*
Y20404D01*
X25419Y20455D01*
X25618Y20302D01*
X25893Y20188D01*
X26060Y20166D01*
Y21288D01*
X26187D01*
Y21415D01*
X27309D01*
X27287Y21583D01*
X27174Y21857D01*
X26993Y22093D01*
X26757Y22274D01*
X26482Y22388D01*
X26268Y22416D01*
X26223Y22550D01*
X35136Y31463D01*
X45885D01*
X45894Y31336D01*
X45786Y31322D01*
X45586Y31239D01*
X45415Y31108D01*
X45284Y30937D01*
X45201Y30738D01*
X45173Y30524D01*
X45201Y30310D01*
X45284Y30111D01*
X45415Y29940D01*
X45586Y29809D01*
X45786Y29726D01*
X45999Y29698D01*
X46213Y29726D01*
X46412Y29809D01*
X46584Y29940D01*
X46715Y30111D01*
X46797Y30310D01*
X46825Y30524D01*
X46797Y30738D01*
X46715Y30937D01*
X46584Y31108D01*
X46412Y31239D01*
X46213Y31322D01*
X46105Y31336D01*
X46114Y31463D01*
X53825D01*
X53834Y31336D01*
X53726Y31322D01*
X53526Y31239D01*
X53355Y31108D01*
X53224Y30937D01*
X53141Y30738D01*
X53113Y30524D01*
X53141Y30310D01*
X53224Y30111D01*
X53355Y29940D01*
X53526Y29809D01*
X53726Y29726D01*
X53939Y29698D01*
X54153Y29726D01*
X54352Y29809D01*
X54524Y29940D01*
X54655Y30111D01*
X54737Y30310D01*
X54765Y30524D01*
X54737Y30738D01*
X54655Y30937D01*
X54524Y31108D01*
X54352Y31239D01*
X54153Y31322D01*
X54045Y31336D01*
X54054Y31463D01*
X54703D01*
X54958Y31208D01*
Y30353D01*
X54988Y30204D01*
X55072Y30078D01*
X55707Y29443D01*
X55833Y29359D01*
X55943Y29337D01*
X55979Y29234D01*
X55978Y29204D01*
X55926Y29164D01*
X55765Y28954D01*
X55664Y28710D01*
X55629Y28448D01*
X55664Y28186D01*
X55765Y27942D01*
X55926Y27732D01*
X56136Y27571D01*
X56380Y27470D01*
X56642Y27435D01*
X56904Y27470D01*
X57148Y27571D01*
X57358Y27732D01*
X57422Y27815D01*
X57549Y27772D01*
Y27364D01*
X57194Y27010D01*
X57175Y26997D01*
X57144Y26982D01*
X57104Y26967D01*
X57052Y26952D01*
X56991Y26939D01*
X56923Y26930D01*
X56747Y26918D01*
X56669Y26917D01*
X56642Y26921D01*
X56380Y26886D01*
X56136Y26785D01*
X55926Y26624D01*
X55765Y26414D01*
X55664Y26170D01*
X55629Y25908D01*
X55664Y25646D01*
X55765Y25402D01*
X55926Y25192D01*
X56136Y25031D01*
X56380Y24930D01*
X56642Y24895D01*
X56904Y24930D01*
X57148Y25031D01*
X57358Y25192D01*
X57519Y25402D01*
X57620Y25646D01*
X57655Y25908D01*
X57651Y25935D01*
X57652Y26013D01*
X57664Y26189D01*
X57673Y26257D01*
X57686Y26318D01*
X57701Y26370D01*
X57716Y26410D01*
X57731Y26441D01*
X57744Y26460D01*
X58212Y26929D01*
X58296Y27055D01*
X58326Y27203D01*
Y28956D01*
X58296Y29105D01*
X58212Y29231D01*
X57450Y29993D01*
X57324Y30077D01*
X57315Y30079D01*
X57283Y30215D01*
X57358Y30272D01*
X57519Y30482D01*
X57620Y30726D01*
X57655Y30988D01*
X57620Y31250D01*
X57519Y31494D01*
X57358Y31704D01*
X57148Y31865D01*
X56904Y31966D01*
X56642Y32001D01*
X56380Y31966D01*
X56136Y31865D01*
X55926Y31704D01*
X55817Y31562D01*
X55815Y31561D01*
X55667Y31575D01*
X55621Y31644D01*
X55139Y32126D01*
X55013Y32210D01*
X54864Y32240D01*
X54410D01*
X54396Y32267D01*
X54376Y32367D01*
X54524Y32480D01*
X54655Y32651D01*
X54737Y32850D01*
X54765Y33064D01*
X54737Y33278D01*
X54655Y33477D01*
X54524Y33648D01*
X54352Y33779D01*
X54153Y33862D01*
X53939Y33890D01*
D02*
G37*
G36*
Y28810D02*
X53726Y28782D01*
X53526Y28699D01*
X53355Y28568D01*
X53224Y28397D01*
X53141Y28198D01*
X53113Y27984D01*
X53141Y27770D01*
X53224Y27571D01*
X53355Y27400D01*
X53526Y27269D01*
X53726Y27186D01*
X53939Y27158D01*
X54153Y27186D01*
X54352Y27269D01*
X54524Y27400D01*
X54655Y27571D01*
X54737Y27770D01*
X54765Y27984D01*
X54737Y28198D01*
X54655Y28397D01*
X54524Y28568D01*
X54352Y28699D01*
X54153Y28782D01*
X53939Y28810D01*
D02*
G37*
G36*
X45999Y26270D02*
X45786Y26242D01*
X45586Y26159D01*
X45415Y26028D01*
X45406Y26016D01*
X45367Y25978D01*
X45326Y25941D01*
X45287Y25910D01*
X45250Y25885D01*
X45218Y25865D01*
X45189Y25851D01*
X45163Y25841D01*
X45142Y25834D01*
X45131Y25832D01*
X42696D01*
X42547Y25803D01*
X42421Y25719D01*
X34670Y17968D01*
X33232D01*
X33209Y17973D01*
X33177Y17984D01*
X33137Y18002D01*
X33091Y18028D01*
X33039Y18062D01*
X32984Y18103D01*
X32851Y18219D01*
X32795Y18274D01*
X32778Y18296D01*
X32569Y18457D01*
X32325Y18558D01*
X32062Y18592D01*
X31800Y18558D01*
X31556Y18457D01*
X31346Y18296D01*
X31185Y18086D01*
X31084Y17842D01*
X31050Y17580D01*
X31084Y17317D01*
X31185Y17073D01*
X31346Y16864D01*
X31556Y16703D01*
X31800Y16601D01*
X32062Y16567D01*
X32325Y16601D01*
X32569Y16703D01*
X32778Y16864D01*
X32795Y16885D01*
X32851Y16940D01*
X32984Y17056D01*
X33039Y17097D01*
X33091Y17132D01*
X33137Y17158D01*
X33177Y17176D01*
X33209Y17186D01*
X33232Y17191D01*
X34831D01*
X34980Y17221D01*
X35106Y17305D01*
X42857Y25056D01*
X45131D01*
X45142Y25054D01*
X45163Y25047D01*
X45189Y25037D01*
X45218Y25023D01*
X45250Y25003D01*
X45284Y24980D01*
X45370Y24908D01*
X45406Y24872D01*
X45415Y24860D01*
X45586Y24729D01*
X45786Y24646D01*
X45999Y24618D01*
X46213Y24646D01*
X46412Y24729D01*
X46584Y24860D01*
X46715Y25031D01*
X46797Y25230D01*
X46825Y25444D01*
X46797Y25658D01*
X46715Y25857D01*
X46584Y26028D01*
X46412Y26159D01*
X46213Y26242D01*
X45999Y26270D01*
D02*
G37*
G36*
Y28810D02*
X45786Y28782D01*
X45586Y28699D01*
X45415Y28568D01*
X45284Y28397D01*
X45201Y28198D01*
X45173Y27984D01*
X45201Y27770D01*
X45284Y27571D01*
X45415Y27400D01*
X45496Y27338D01*
X45453Y27211D01*
X41046D01*
X40898Y27181D01*
X40772Y27097D01*
X35351Y21676D01*
X35178D01*
X35178Y21676D01*
X35148Y21683D01*
X35108Y21698D01*
X35058Y21722D01*
X35000Y21755D01*
X34935Y21800D01*
X34866Y21853D01*
X34703Y21997D01*
X34634Y22065D01*
X34613Y22093D01*
X34377Y22274D01*
X34102Y22388D01*
X33807Y22427D01*
X33513Y22388D01*
X33238Y22274D01*
X33002Y22093D01*
X32821Y21857D01*
X32707Y21583D01*
X32669Y21288D01*
X32707Y20993D01*
X32821Y20719D01*
X33002Y20483D01*
X33238Y20302D01*
X33513Y20188D01*
X33807Y20149D01*
X34102Y20188D01*
X34377Y20302D01*
X34613Y20483D01*
X34634Y20511D01*
X34703Y20579D01*
X34866Y20723D01*
X34935Y20776D01*
X35000Y20821D01*
X35058Y20854D01*
X35108Y20878D01*
X35148Y20893D01*
X35178Y20900D01*
X35178Y20900D01*
X35512D01*
X35661Y20929D01*
X35787Y21013D01*
X41207Y26434D01*
X48852D01*
X51063Y24223D01*
X51189Y24139D01*
X51337Y24110D01*
X55351D01*
X55540Y23920D01*
X55553Y23901D01*
X55568Y23870D01*
X55583Y23830D01*
X55598Y23778D01*
X55611Y23717D01*
X55620Y23649D01*
X55632Y23473D01*
X55633Y23395D01*
X55629Y23368D01*
X55664Y23106D01*
X55765Y22862D01*
X55926Y22652D01*
X56136Y22491D01*
X56380Y22390D01*
X56642Y22355D01*
X56904Y22390D01*
X57148Y22491D01*
X57358Y22652D01*
X57519Y22862D01*
X57620Y23106D01*
X57655Y23368D01*
X57620Y23630D01*
X57519Y23874D01*
X57358Y24084D01*
X57148Y24245D01*
X56904Y24346D01*
X56642Y24381D01*
X56615Y24377D01*
X56537Y24378D01*
X56361Y24390D01*
X56293Y24399D01*
X56232Y24412D01*
X56180Y24427D01*
X56140Y24442D01*
X56109Y24457D01*
X56090Y24470D01*
X55787Y24773D01*
X55661Y24857D01*
X55512Y24886D01*
X54687D01*
X54631Y25000D01*
X54655Y25031D01*
X54737Y25230D01*
X54765Y25444D01*
X54737Y25658D01*
X54655Y25857D01*
X54524Y26028D01*
X54352Y26159D01*
X54153Y26242D01*
X53939Y26270D01*
X53726Y26242D01*
X53526Y26159D01*
X53355Y26028D01*
X53224Y25857D01*
X53141Y25658D01*
X53113Y25444D01*
X53141Y25230D01*
X53224Y25031D01*
X53247Y25000D01*
X53191Y24886D01*
X51498D01*
X49287Y27097D01*
X49161Y27181D01*
X49013Y27211D01*
X46546D01*
X46503Y27338D01*
X46584Y27400D01*
X46715Y27571D01*
X46797Y27770D01*
X46825Y27984D01*
X46797Y28198D01*
X46715Y28397D01*
X46584Y28568D01*
X46412Y28699D01*
X46213Y28782D01*
X45999Y28810D01*
D02*
G37*
G36*
X53939Y23730D02*
X53726Y23702D01*
X53526Y23619D01*
X53355Y23488D01*
X53224Y23317D01*
X53141Y23118D01*
X53113Y22904D01*
X53141Y22690D01*
X53224Y22491D01*
X53355Y22320D01*
X53526Y22189D01*
X53726Y22106D01*
X53939Y22078D01*
X54153Y22106D01*
X54352Y22189D01*
X54524Y22320D01*
X54655Y22491D01*
X54737Y22690D01*
X54765Y22904D01*
X54737Y23118D01*
X54655Y23317D01*
X54524Y23488D01*
X54352Y23619D01*
X54153Y23702D01*
X53939Y23730D01*
D02*
G37*
G36*
X45999D02*
X45786Y23702D01*
X45586Y23619D01*
X45415Y23488D01*
X45284Y23317D01*
X45201Y23118D01*
X45173Y22904D01*
X45175Y22889D01*
X45175Y22835D01*
X45171Y22779D01*
X45166Y22730D01*
X45158Y22686D01*
X45149Y22649D01*
X45139Y22618D01*
X45128Y22593D01*
X45117Y22574D01*
X45111Y22565D01*
X43805Y21259D01*
X43721Y21133D01*
X43691Y20984D01*
Y16270D01*
X42698Y15278D01*
X42679Y15265D01*
X42649Y15250D01*
X42608Y15235D01*
X42557Y15220D01*
X42495Y15207D01*
X42427Y15198D01*
X42252Y15186D01*
X42173Y15185D01*
X42146Y15189D01*
X41884Y15154D01*
X41640Y15053D01*
X41430Y14892D01*
X41269Y14682D01*
X41168Y14438D01*
X41134Y14176D01*
X41168Y13914D01*
X41269Y13670D01*
X41430Y13460D01*
X41640Y13299D01*
X41884Y13198D01*
X42146Y13163D01*
X42408Y13198D01*
X42653Y13299D01*
X42862Y13460D01*
X43023Y13670D01*
X43124Y13914D01*
X43159Y14176D01*
X43155Y14203D01*
X43156Y14281D01*
X43168Y14457D01*
X43178Y14525D01*
X43190Y14586D01*
X43205Y14638D01*
X43220Y14678D01*
X43235Y14709D01*
X43248Y14728D01*
X44354Y15835D01*
X44438Y15961D01*
X44468Y16109D01*
Y20823D01*
X45660Y22015D01*
X45669Y22022D01*
X45689Y22032D01*
X45714Y22043D01*
X45744Y22053D01*
X45782Y22063D01*
X45821Y22070D01*
X45933Y22079D01*
X45984Y22080D01*
X45999Y22078D01*
X46213Y22106D01*
X46412Y22189D01*
X46584Y22320D01*
X46715Y22491D01*
X46797Y22690D01*
X46825Y22904D01*
X46797Y23118D01*
X46715Y23317D01*
X46584Y23488D01*
X46412Y23619D01*
X46213Y23702D01*
X45999Y23730D01*
D02*
G37*
G36*
X31394Y22410D02*
Y21415D01*
X32389D01*
X32367Y21583D01*
X32254Y21857D01*
X32073Y22093D01*
X31837Y22274D01*
X31562Y22388D01*
X31394Y22410D01*
D02*
G37*
G36*
X31140D02*
X30973Y22388D01*
X30698Y22274D01*
X30462Y22093D01*
X30281Y21857D01*
X30167Y21583D01*
X30145Y21415D01*
X31140D01*
Y22410D01*
D02*
G37*
G36*
X56769Y21824D02*
Y20955D01*
X57638D01*
X57620Y21090D01*
X57519Y21334D01*
X57358Y21544D01*
X57148Y21705D01*
X56904Y21806D01*
X56769Y21824D01*
D02*
G37*
G36*
X56515D02*
X56380Y21806D01*
X56136Y21705D01*
X55926Y21544D01*
X55765Y21334D01*
X55664Y21090D01*
X55646Y20955D01*
X56515D01*
Y21824D01*
D02*
G37*
G36*
X32389Y21161D02*
X31394D01*
Y20166D01*
X31562Y20188D01*
X31837Y20302D01*
X32073Y20483D01*
X32254Y20719D01*
X32367Y20993D01*
X32389Y21161D01*
D02*
G37*
G36*
X31140D02*
X30145D01*
X30167Y20993D01*
X30281Y20719D01*
X30462Y20483D01*
X30698Y20302D01*
X30973Y20188D01*
X31140Y20166D01*
Y21161D01*
D02*
G37*
G36*
X27309D02*
X26314D01*
Y20166D01*
X26482Y20188D01*
X26757Y20302D01*
X26993Y20483D01*
X27174Y20719D01*
X27287Y20993D01*
X27309Y21161D01*
D02*
G37*
G36*
X28727Y22427D02*
X28433Y22388D01*
X28158Y22274D01*
X27922Y22093D01*
X27741Y21857D01*
X27627Y21583D01*
X27589Y21288D01*
X27627Y20993D01*
X27741Y20719D01*
X27922Y20483D01*
X28158Y20302D01*
X28433Y20188D01*
X28727Y20149D01*
X29022Y20188D01*
X29297Y20302D01*
X29533Y20483D01*
X29714Y20719D01*
X29827Y20993D01*
X29866Y21288D01*
X29827Y21583D01*
X29714Y21857D01*
X29533Y22093D01*
X29297Y22274D01*
X29022Y22388D01*
X28727Y22427D01*
D02*
G37*
G36*
X21107D02*
X20813Y22388D01*
X20538Y22274D01*
X20302Y22093D01*
X20121Y21857D01*
X20007Y21583D01*
X19969Y21288D01*
X20007Y20993D01*
X20121Y20719D01*
X20302Y20483D01*
X20538Y20302D01*
X20813Y20188D01*
X21107Y20149D01*
X21402Y20188D01*
X21677Y20302D01*
X21913Y20483D01*
X22094Y20719D01*
X22207Y20993D01*
X22246Y21288D01*
X22207Y21583D01*
X22094Y21857D01*
X21913Y22093D01*
X21677Y22274D01*
X21402Y22388D01*
X21107Y22427D01*
D02*
G37*
G36*
X16027D02*
X15733Y22388D01*
X15458Y22274D01*
X15222Y22093D01*
X15041Y21857D01*
X14927Y21583D01*
X14889Y21288D01*
X14927Y20993D01*
X15041Y20719D01*
X15222Y20483D01*
X15458Y20302D01*
X15733Y20188D01*
X16027Y20149D01*
X16322Y20188D01*
X16597Y20302D01*
X16833Y20483D01*
X17014Y20719D01*
X17127Y20993D01*
X17166Y21288D01*
X17127Y21583D01*
X17014Y21857D01*
X16833Y22093D01*
X16597Y22274D01*
X16322Y22388D01*
X16027Y22427D01*
D02*
G37*
G36*
X57638Y20701D02*
X56769D01*
Y19832D01*
X56904Y19850D01*
X57148Y19951D01*
X57358Y20112D01*
X57519Y20322D01*
X57620Y20566D01*
X57638Y20701D01*
D02*
G37*
G36*
X56515D02*
X55646D01*
X55664Y20566D01*
X55765Y20322D01*
X55926Y20112D01*
X56136Y19951D01*
X56380Y19850D01*
X56515Y19832D01*
Y20701D01*
D02*
G37*
G36*
X18542Y19887D02*
X18247Y19848D01*
X17973Y19734D01*
X17737Y19553D01*
X17556Y19317D01*
X17442Y19043D01*
X17403Y18748D01*
X17442Y18453D01*
X17556Y18179D01*
X17737Y17943D01*
X17973Y17762D01*
X18247Y17648D01*
X18542Y17609D01*
X18837Y17648D01*
X19111Y17762D01*
X19347Y17943D01*
X19528Y18179D01*
X19642Y18453D01*
X19681Y18748D01*
X19642Y19043D01*
X19528Y19317D01*
X19347Y19553D01*
X19111Y19734D01*
X18837Y19848D01*
X18542Y19887D01*
D02*
G37*
G36*
X13462D02*
X13167Y19848D01*
X12893Y19734D01*
X12657Y19553D01*
X12476Y19317D01*
X12362Y19043D01*
X12323Y18748D01*
X12362Y18453D01*
X12476Y18179D01*
X12657Y17943D01*
X12893Y17762D01*
X13167Y17648D01*
X13462Y17609D01*
X13757Y17648D01*
X14031Y17762D01*
X14267Y17943D01*
X14448Y18179D01*
X14562Y18453D01*
X14601Y18748D01*
X14562Y19043D01*
X14448Y19317D01*
X14267Y19553D01*
X14031Y19734D01*
X13757Y19848D01*
X13462Y19887D01*
D02*
G37*
G36*
X54758Y21183D02*
X53120D01*
Y19545D01*
X53551D01*
Y18364D01*
X53581Y18216D01*
X53665Y18090D01*
X53741Y18013D01*
X53867Y17929D01*
X54016Y17900D01*
X54282D01*
X54297Y17871D01*
X54307Y17862D01*
X54315Y17851D01*
X54346Y17830D01*
X54374Y17807D01*
X54388Y17802D01*
X54399Y17795D01*
X54436Y17788D01*
X54471Y17776D01*
X54485Y17778D01*
X54498Y17775D01*
X54535Y17782D01*
X54572Y17786D01*
X54584Y17792D01*
X54597Y17795D01*
X54628Y17815D01*
X54661Y17833D01*
X54670Y17843D01*
X54681Y17851D01*
X54702Y17882D01*
X54717Y17900D01*
X55473D01*
X55495Y17895D01*
X55527Y17884D01*
X55567Y17866D01*
X55613Y17840D01*
X55666Y17806D01*
X55721Y17764D01*
X55853Y17649D01*
X55909Y17594D01*
X55926Y17572D01*
X56136Y17411D01*
X56380Y17310D01*
X56642Y17275D01*
X56904Y17310D01*
X57148Y17411D01*
X57358Y17572D01*
X57519Y17782D01*
X57620Y18026D01*
X57655Y18288D01*
X57620Y18550D01*
X57519Y18794D01*
X57358Y19004D01*
X57148Y19165D01*
X56904Y19266D01*
X56642Y19301D01*
X56380Y19266D01*
X56136Y19165D01*
X55926Y19004D01*
X55909Y18982D01*
X55853Y18927D01*
X55721Y18812D01*
X55666Y18770D01*
X55613Y18736D01*
X55567Y18710D01*
X55527Y18692D01*
X55495Y18681D01*
X55473Y18676D01*
X54717D01*
X54702Y18694D01*
X54681Y18725D01*
X54670Y18733D01*
X54661Y18743D01*
X54628Y18761D01*
X54597Y18781D01*
X54584Y18784D01*
X54572Y18790D01*
X54535Y18794D01*
X54498Y18801D01*
X54485Y18798D01*
X54471Y18800D01*
X54455Y18795D01*
X54394Y18822D01*
X54345Y18861D01*
X54328Y18886D01*
Y19545D01*
X54758D01*
Y21183D01*
D02*
G37*
G36*
X56642Y16761D02*
X56380Y16726D01*
X56136Y16625D01*
X55926Y16464D01*
X55765Y16254D01*
X55664Y16010D01*
X55629Y15748D01*
X55664Y15486D01*
X55765Y15242D01*
X55926Y15032D01*
X56136Y14871D01*
X56380Y14770D01*
X56642Y14735D01*
X56904Y14770D01*
X57148Y14871D01*
X57358Y15032D01*
X57519Y15242D01*
X57620Y15486D01*
X57655Y15748D01*
X57620Y16010D01*
X57519Y16254D01*
X57358Y16464D01*
X57148Y16625D01*
X56904Y16726D01*
X56642Y16761D01*
D02*
G37*
G36*
X25603Y15032D02*
Y14151D01*
X26484D01*
X26466Y14289D01*
X26364Y14536D01*
X26201Y14748D01*
X25989Y14911D01*
X25741Y15013D01*
X25603Y15032D01*
D02*
G37*
G36*
X25349D02*
X25211Y15013D01*
X24964Y14911D01*
X24752Y14748D01*
X24589Y14536D01*
X24486Y14289D01*
X24468Y14151D01*
X25349D01*
Y15032D01*
D02*
G37*
G36*
X56769Y14204D02*
Y13335D01*
X57638D01*
X57620Y13470D01*
X57519Y13714D01*
X57358Y13924D01*
X57148Y14085D01*
X56904Y14186D01*
X56769Y14204D01*
D02*
G37*
G36*
X56515D02*
X56380Y14186D01*
X56136Y14085D01*
X55926Y13924D01*
X55765Y13714D01*
X55664Y13470D01*
X55646Y13335D01*
X56515D01*
Y14204D01*
D02*
G37*
G36*
X26484Y13897D02*
X25603D01*
Y13016D01*
X25741Y13034D01*
X25989Y13136D01*
X26201Y13299D01*
X26364Y13511D01*
X26466Y13758D01*
X26484Y13897D01*
D02*
G37*
G36*
X25349D02*
X24468D01*
X24486Y13758D01*
X24589Y13511D01*
X24752Y13299D01*
X24964Y13136D01*
X25211Y13034D01*
X25349Y13016D01*
Y13897D01*
D02*
G37*
G36*
X57638Y13081D02*
X56769D01*
Y12212D01*
X56904Y12230D01*
X57148Y12331D01*
X57358Y12492D01*
X57519Y12702D01*
X57620Y12946D01*
X57638Y13081D01*
D02*
G37*
G36*
X56515D02*
X55646D01*
X55664Y12946D01*
X55765Y12702D01*
X55926Y12492D01*
X56136Y12331D01*
X56380Y12230D01*
X56515Y12212D01*
Y13081D01*
D02*
G37*
G36*
X32189Y11946D02*
Y11077D01*
X33058D01*
X33041Y11212D01*
X32939Y11457D01*
X32778Y11666D01*
X32569Y11827D01*
X32325Y11928D01*
X32189Y11946D01*
D02*
G37*
G36*
X31935D02*
X31800Y11928D01*
X31556Y11827D01*
X31346Y11666D01*
X31185Y11457D01*
X31084Y11212D01*
X31066Y11077D01*
X31935D01*
Y11946D01*
D02*
G37*
G36*
X33058Y10823D02*
X32189D01*
Y9954D01*
X32325Y9972D01*
X32569Y10073D01*
X32778Y10234D01*
X32939Y10444D01*
X33041Y10688D01*
X33058Y10823D01*
D02*
G37*
G36*
X31935D02*
X31066D01*
X31084Y10688D01*
X31185Y10444D01*
X31346Y10234D01*
X31556Y10073D01*
X31800Y9972D01*
X31935Y9954D01*
Y10823D01*
D02*
G37*
G36*
X56642Y11681D02*
X56380Y11646D01*
X56136Y11545D01*
X55926Y11384D01*
X55765Y11174D01*
X55664Y10930D01*
X55629Y10668D01*
X55664Y10406D01*
X55765Y10162D01*
X55926Y9952D01*
X56136Y9791D01*
X56380Y9690D01*
X56642Y9655D01*
X56904Y9690D01*
X57148Y9791D01*
X57358Y9952D01*
X57519Y10162D01*
X57620Y10406D01*
X57655Y10668D01*
X57620Y10930D01*
X57519Y11174D01*
X57358Y11384D01*
X57148Y11545D01*
X56904Y11646D01*
X56642Y11681D01*
D02*
G37*
G36*
X18567Y22427D02*
X18273Y22388D01*
X17998Y22274D01*
X17762Y22093D01*
X17581Y21857D01*
X17467Y21583D01*
X17429Y21288D01*
X17467Y20993D01*
X17581Y20719D01*
X17762Y20483D01*
X17998Y20302D01*
X18273Y20188D01*
X18567Y20149D01*
X18603Y20154D01*
X18699Y20153D01*
X18917Y20140D01*
X19003Y20129D01*
X19080Y20114D01*
X19145Y20097D01*
X19197Y20079D01*
X19236Y20061D01*
X19262Y20044D01*
X19262Y20044D01*
X21655Y17651D01*
Y11233D01*
X21685Y11085D01*
X21769Y10959D01*
X24361Y8366D01*
X24374Y8347D01*
X24389Y8315D01*
X24405Y8273D01*
X24420Y8221D01*
X24433Y8158D01*
X24442Y8088D01*
X24455Y7909D01*
X24455Y7829D01*
X24451Y7801D01*
X24486Y7535D01*
X24589Y7288D01*
X24752Y7076D01*
X24964Y6913D01*
X25211Y6811D01*
X25476Y6776D01*
X25504Y6780D01*
X25584Y6779D01*
X25764Y6767D01*
X25834Y6757D01*
X25897Y6744D01*
X25949Y6729D01*
X25991Y6714D01*
X26022Y6698D01*
X26042Y6685D01*
X29954Y2773D01*
X30080Y2689D01*
X30229Y2660D01*
X36928D01*
X36959Y2586D01*
X37121Y2374D01*
X37334Y2211D01*
X37503Y2141D01*
X37478Y2014D01*
X24338D01*
X24295Y2141D01*
X24427Y2243D01*
X24608Y2479D01*
X24722Y2753D01*
X24761Y3048D01*
X24722Y3343D01*
X24608Y3617D01*
X24427Y3853D01*
X24191Y4034D01*
X23917Y4148D01*
X23622Y4187D01*
X23327Y4148D01*
X23053Y4034D01*
X22817Y3853D01*
X22636Y3617D01*
X22522Y3343D01*
X22483Y3048D01*
X22522Y2753D01*
X22636Y2479D01*
X22817Y2243D01*
X22949Y2141D01*
X22906Y2014D01*
X19258D01*
X19215Y2141D01*
X19347Y2243D01*
X19528Y2479D01*
X19642Y2753D01*
X19681Y3048D01*
X19642Y3343D01*
X19528Y3617D01*
X19347Y3853D01*
X19111Y4034D01*
X18837Y4148D01*
X18542Y4187D01*
X18247Y4148D01*
X17973Y4034D01*
X17737Y3853D01*
X17556Y3617D01*
X17442Y3343D01*
X17403Y3048D01*
X17442Y2753D01*
X17556Y2479D01*
X17737Y2243D01*
X17869Y2141D01*
X17826Y2014D01*
X17027D01*
X15718Y3323D01*
X15592Y3407D01*
X15443Y3436D01*
X14833D01*
X14832Y3436D01*
X14802Y3443D01*
X14762Y3458D01*
X14712Y3482D01*
X14655Y3515D01*
X14590Y3560D01*
X14521Y3613D01*
X14357Y3757D01*
X14289Y3825D01*
X14267Y3853D01*
X14031Y4034D01*
X13757Y4148D01*
X13462Y4187D01*
X13167Y4148D01*
X12893Y4034D01*
X12657Y3853D01*
X12476Y3617D01*
X12362Y3343D01*
X12323Y3048D01*
X12362Y2753D01*
X12476Y2479D01*
X12657Y2243D01*
X12893Y2062D01*
X13167Y1948D01*
X13462Y1909D01*
X13757Y1948D01*
X14031Y2062D01*
X14267Y2243D01*
X14289Y2271D01*
X14357Y2339D01*
X14521Y2483D01*
X14590Y2536D01*
X14655Y2581D01*
X14712Y2614D01*
X14762Y2638D01*
X14802Y2653D01*
X14832Y2660D01*
X14833Y2660D01*
X15282D01*
X16591Y1351D01*
X16717Y1267D01*
X16866Y1237D01*
X52680D01*
X52828Y1267D01*
X52954Y1351D01*
X56090Y4486D01*
X56109Y4499D01*
X56140Y4514D01*
X56180Y4529D01*
X56232Y4544D01*
X56293Y4557D01*
X56361Y4566D01*
X56537Y4578D01*
X56615Y4579D01*
X56642Y4575D01*
X56904Y4610D01*
X57148Y4711D01*
X57358Y4872D01*
X57519Y5082D01*
X57620Y5326D01*
X57655Y5588D01*
X57620Y5850D01*
X57519Y6094D01*
X57358Y6304D01*
X57148Y6465D01*
X56904Y6566D01*
X56642Y6601D01*
X56380Y6566D01*
X56136Y6465D01*
X55926Y6304D01*
X55765Y6094D01*
X55664Y5850D01*
X55629Y5588D01*
X55633Y5561D01*
X55632Y5483D01*
X55620Y5307D01*
X55611Y5239D01*
X55598Y5178D01*
X55583Y5126D01*
X55568Y5086D01*
X55553Y5055D01*
X55540Y5036D01*
X52519Y2014D01*
X43294D01*
X43269Y2141D01*
X43438Y2211D01*
X43651Y2374D01*
X43813Y2586D01*
X43916Y2834D01*
X43934Y2972D01*
X41918D01*
X41936Y2834D01*
X42039Y2586D01*
X42201Y2374D01*
X42414Y2211D01*
X42583Y2141D01*
X42558Y2014D01*
X38214D01*
X38189Y2141D01*
X38358Y2211D01*
X38571Y2374D01*
X38733Y2586D01*
X38836Y2834D01*
X38871Y3099D01*
X38836Y3364D01*
X38733Y3611D01*
X38571Y3823D01*
X38358Y3986D01*
X38111Y4089D01*
X37846Y4124D01*
X37581Y4089D01*
X37334Y3986D01*
X37121Y3823D01*
X36959Y3611D01*
X36886Y3436D01*
X30390D01*
X26591Y7235D01*
X26583Y7248D01*
X26578Y7269D01*
X26595Y7337D01*
X26631Y7398D01*
X26650Y7409D01*
X26665Y7412D01*
X35715D01*
X35864Y7442D01*
X35990Y7526D01*
X40369Y11905D01*
X41449D01*
X41492Y11778D01*
X41346Y11666D01*
X41185Y11457D01*
X41084Y11212D01*
X41050Y10950D01*
X41084Y10688D01*
X41185Y10444D01*
X41346Y10234D01*
X41556Y10073D01*
X41800Y9972D01*
X42062Y9938D01*
X42090Y9941D01*
X42168Y9941D01*
X42344Y9929D01*
X42412Y9919D01*
X42473Y9906D01*
X42524Y9892D01*
X42565Y9876D01*
X42596Y9861D01*
X42615Y9849D01*
X44610Y7853D01*
X44736Y7769D01*
X44885Y7740D01*
X55473D01*
X55495Y7735D01*
X55527Y7724D01*
X55567Y7706D01*
X55613Y7680D01*
X55666Y7646D01*
X55721Y7604D01*
X55853Y7489D01*
X55909Y7434D01*
X55926Y7412D01*
X56136Y7251D01*
X56380Y7150D01*
X56642Y7115D01*
X56904Y7150D01*
X57148Y7251D01*
X57358Y7412D01*
X57519Y7622D01*
X57620Y7866D01*
X57655Y8128D01*
X57620Y8390D01*
X57519Y8634D01*
X57358Y8844D01*
X57148Y9005D01*
X56904Y9106D01*
X56642Y9141D01*
X56380Y9106D01*
X56136Y9005D01*
X55926Y8844D01*
X55909Y8822D01*
X55853Y8767D01*
X55721Y8652D01*
X55666Y8610D01*
X55613Y8576D01*
X55567Y8550D01*
X55527Y8532D01*
X55495Y8521D01*
X55473Y8516D01*
X45046D01*
X43164Y10398D01*
X43152Y10417D01*
X43136Y10448D01*
X43121Y10489D01*
X43106Y10540D01*
X43094Y10601D01*
X43084Y10669D01*
X43072Y10845D01*
X43071Y10923D01*
X43075Y10950D01*
X43041Y11212D01*
X42939Y11457D01*
X42778Y11666D01*
X42633Y11778D01*
X42670Y11897D01*
X42675Y11906D01*
X42821Y11935D01*
X42947Y12019D01*
X46274Y15346D01*
X46358Y15472D01*
X46388Y15621D01*
Y19496D01*
X46390Y19507D01*
X46396Y19528D01*
X46406Y19553D01*
X46421Y19582D01*
X46440Y19615D01*
X46463Y19648D01*
X46536Y19734D01*
X46571Y19771D01*
X46584Y19780D01*
X46715Y19951D01*
X46797Y20150D01*
X46825Y20364D01*
X46797Y20578D01*
X46715Y20777D01*
X46584Y20948D01*
X46412Y21079D01*
X46213Y21162D01*
X45999Y21190D01*
X45786Y21162D01*
X45586Y21079D01*
X45415Y20948D01*
X45284Y20777D01*
X45201Y20578D01*
X45173Y20364D01*
X45201Y20150D01*
X45284Y19951D01*
X45415Y19780D01*
X45427Y19771D01*
X45465Y19732D01*
X45502Y19690D01*
X45533Y19651D01*
X45559Y19615D01*
X45578Y19582D01*
X45593Y19553D01*
X45603Y19528D01*
X45609Y19507D01*
X45611Y19496D01*
Y15782D01*
X42511Y12682D01*
X40208D01*
X40060Y12652D01*
X39934Y12568D01*
X35554Y8189D01*
X26744D01*
X26742Y8190D01*
X26740Y8193D01*
X26688Y8316D01*
X31514Y13142D01*
X31532Y13153D01*
X31559Y13166D01*
X31594Y13178D01*
X31639Y13187D01*
X31692Y13194D01*
X31751Y13197D01*
X31911Y13189D01*
X32002Y13177D01*
X32026Y13179D01*
X32146Y13163D01*
X32408Y13198D01*
X32653Y13299D01*
X32862Y13460D01*
X32879Y13482D01*
X32935Y13537D01*
X33067Y13652D01*
X33122Y13694D01*
X33175Y13728D01*
X33221Y13754D01*
X33261Y13772D01*
X33293Y13783D01*
X33316Y13788D01*
X38659D01*
X38807Y13817D01*
X38933Y13901D01*
X41510Y16478D01*
X41529Y16490D01*
X41560Y16506D01*
X41601Y16521D01*
X41652Y16536D01*
X41713Y16548D01*
X41781Y16558D01*
X41957Y16570D01*
X42035Y16571D01*
X42062Y16567D01*
X42325Y16601D01*
X42569Y16703D01*
X42778Y16864D01*
X42939Y17073D01*
X43041Y17317D01*
X43075Y17580D01*
X43041Y17842D01*
X42939Y18086D01*
X42778Y18296D01*
X42569Y18457D01*
X42325Y18558D01*
X42062Y18592D01*
X41800Y18558D01*
X41556Y18457D01*
X41346Y18296D01*
X41185Y18086D01*
X41084Y17842D01*
X41050Y17580D01*
X41053Y17552D01*
X41053Y17474D01*
X41041Y17298D01*
X41031Y17230D01*
X41018Y17169D01*
X41004Y17118D01*
X40988Y17077D01*
X40973Y17046D01*
X40961Y17027D01*
X38498Y14564D01*
X33316D01*
X33293Y14569D01*
X33261Y14580D01*
X33221Y14598D01*
X33175Y14624D01*
X33122Y14658D01*
X33067Y14700D01*
X32935Y14815D01*
X32879Y14870D01*
X32862Y14892D01*
X32653Y15053D01*
X32408Y15154D01*
X32146Y15189D01*
X31884Y15154D01*
X31640Y15053D01*
X31430Y14892D01*
X31269Y14682D01*
X31168Y14438D01*
X31154Y14334D01*
X31147Y14313D01*
X31114Y14102D01*
X31076Y13933D01*
X31057Y13868D01*
X31037Y13811D01*
X31017Y13766D01*
X31000Y13732D01*
X30988Y13714D01*
X26122Y8849D01*
X26103Y8836D01*
X26075Y8823D01*
X26039Y8812D01*
X25993Y8802D01*
X25938Y8795D01*
X25877Y8792D01*
X25713Y8800D01*
X25620Y8811D01*
X25596Y8810D01*
X25476Y8825D01*
X25448Y8822D01*
X25368Y8822D01*
X25188Y8834D01*
X25119Y8844D01*
X25056Y8857D01*
X25003Y8872D01*
X24961Y8888D01*
X24930Y8903D01*
X24910Y8916D01*
X22432Y11394D01*
Y17812D01*
X22402Y17961D01*
X22318Y18087D01*
X19811Y20594D01*
X19811Y20594D01*
X19795Y20620D01*
X19777Y20659D01*
X19758Y20710D01*
X19741Y20775D01*
X19727Y20852D01*
X19715Y20939D01*
X19702Y21157D01*
X19702Y21253D01*
X19706Y21288D01*
X19667Y21583D01*
X19554Y21857D01*
X19373Y22093D01*
X19137Y22274D01*
X18862Y22388D01*
X18567Y22427D01*
D02*
G37*
G36*
X43053Y4107D02*
Y3226D01*
X43934D01*
X43916Y3364D01*
X43813Y3611D01*
X43651Y3823D01*
X43438Y3986D01*
X43191Y4089D01*
X43053Y4107D01*
D02*
G37*
G36*
X42799D02*
X42661Y4089D01*
X42414Y3986D01*
X42201Y3823D01*
X42039Y3611D01*
X41936Y3364D01*
X41918Y3226D01*
X42799D01*
Y4107D01*
D02*
G37*
G36*
X1549Y2864D02*
X1196Y2818D01*
X867Y2681D01*
X584Y2464D01*
X367Y2181D01*
X230Y1852D01*
X184Y1499D01*
X230Y1145D01*
X367Y816D01*
X584Y533D01*
X867Y316D01*
X1196Y179D01*
X1549Y133D01*
X1903Y179D01*
X2232Y316D01*
X2515Y533D01*
X2732Y816D01*
X2869Y1145D01*
X2915Y1499D01*
X2869Y1852D01*
X2732Y2181D01*
X2515Y2464D01*
X2232Y2681D01*
X1903Y2818D01*
X1549Y2864D01*
D02*
G37*
%LPD*%
G36*
X57573Y26659D02*
X57537Y26618D01*
X57506Y26570D01*
X57478Y26514D01*
X57454Y26451D01*
X57434Y26380D01*
X57418Y26302D01*
X57406Y26216D01*
X57393Y26023D01*
X57392Y25916D01*
X56650Y26658D01*
X56757Y26659D01*
X56950Y26672D01*
X57036Y26684D01*
X57114Y26700D01*
X57185Y26720D01*
X57248Y26744D01*
X57304Y26772D01*
X57352Y26803D01*
X57393Y26839D01*
X57573Y26659D01*
D02*
G37*
G36*
X24695Y19642D02*
X24656Y19596D01*
X24622Y19541D01*
X24591Y19476D01*
X24565Y19402D01*
X24543Y19318D01*
X24525Y19225D01*
X24512Y19122D01*
X24498Y18888D01*
X24497Y18757D01*
X23631Y19623D01*
X23762Y19624D01*
X23996Y19638D01*
X24099Y19651D01*
X24192Y19669D01*
X24276Y19691D01*
X24350Y19717D01*
X24415Y19748D01*
X24470Y19782D01*
X24516Y19821D01*
X24695Y19642D01*
D02*
G37*
G36*
X45596Y25049D02*
X45544Y25100D01*
X45442Y25185D01*
X45392Y25220D01*
X45343Y25250D01*
X45295Y25274D01*
X45247Y25293D01*
X45201Y25306D01*
X45155Y25314D01*
X45110Y25317D01*
Y25571D01*
X45155Y25574D01*
X45201Y25582D01*
X45247Y25595D01*
X45295Y25614D01*
X45343Y25638D01*
X45392Y25668D01*
X45442Y25703D01*
X45492Y25743D01*
X45544Y25788D01*
X45596Y25840D01*
Y25049D01*
D02*
G37*
G36*
X32675Y18029D02*
X32821Y17902D01*
X32890Y17850D01*
X32956Y17806D01*
X33021Y17770D01*
X33082Y17742D01*
X33141Y17723D01*
X33198Y17711D01*
X33252Y17707D01*
Y17453D01*
X33198Y17449D01*
X33141Y17437D01*
X33082Y17417D01*
X33021Y17389D01*
X32956Y17353D01*
X32890Y17309D01*
X32821Y17258D01*
X32675Y17130D01*
X32598Y17055D01*
Y18105D01*
X32675Y18029D01*
D02*
G37*
G36*
X55932Y24263D02*
X55980Y24232D01*
X56036Y24204D01*
X56099Y24180D01*
X56170Y24160D01*
X56248Y24144D01*
X56334Y24132D01*
X56527Y24119D01*
X56634Y24118D01*
X55892Y23375D01*
X55891Y23483D01*
X55878Y23676D01*
X55866Y23762D01*
X55850Y23840D01*
X55830Y23911D01*
X55806Y23974D01*
X55778Y24030D01*
X55747Y24078D01*
X55711Y24119D01*
X55891Y24299D01*
X55932Y24263D01*
D02*
G37*
G36*
X34526Y21808D02*
X34701Y21653D01*
X34783Y21590D01*
X34862Y21536D01*
X34936Y21493D01*
X35007Y21459D01*
X35075Y21434D01*
X35138Y21420D01*
X35198Y21415D01*
Y21161D01*
X35138Y21156D01*
X35075Y21142D01*
X35007Y21117D01*
X34936Y21083D01*
X34862Y21040D01*
X34783Y20986D01*
X34701Y20923D01*
X34526Y20768D01*
X34432Y20675D01*
Y21901D01*
X34526Y21808D01*
D02*
G37*
G36*
X45994Y22339D02*
X45921Y22338D01*
X45788Y22327D01*
X45728Y22316D01*
X45672Y22302D01*
X45621Y22285D01*
X45574Y22265D01*
X45532Y22242D01*
X45494Y22215D01*
X45460Y22185D01*
X45281Y22365D01*
X45311Y22399D01*
X45337Y22437D01*
X45361Y22479D01*
X45381Y22526D01*
X45398Y22577D01*
X45412Y22633D01*
X45422Y22692D01*
X45429Y22757D01*
X45434Y22825D01*
X45434Y22898D01*
X45994Y22339D01*
D02*
G37*
G36*
X43077Y14927D02*
X43042Y14886D01*
X43010Y14838D01*
X42982Y14782D01*
X42959Y14719D01*
X42939Y14648D01*
X42922Y14570D01*
X42910Y14484D01*
X42897Y14291D01*
X42896Y14184D01*
X42154Y14926D01*
X42261Y14927D01*
X42455Y14940D01*
X42540Y14952D01*
X42618Y14968D01*
X42689Y14988D01*
X42752Y15012D01*
X42808Y15040D01*
X42856Y15071D01*
X42897Y15107D01*
X43077Y14927D01*
D02*
G37*
G36*
X54169Y19800D02*
X54148Y19792D01*
X54129Y19779D01*
X54112Y19761D01*
X54098Y19739D01*
X54087Y19711D01*
X54078Y19678D01*
X54071Y19639D01*
X54068Y19596D01*
X54066Y19548D01*
X53812D01*
X53811Y19596D01*
X53807Y19639D01*
X53801Y19678D01*
X53792Y19711D01*
X53781Y19739D01*
X53767Y19761D01*
X53750Y19779D01*
X53731Y19792D01*
X53710Y19800D01*
X53685Y19802D01*
X54193D01*
X54169Y19800D01*
D02*
G37*
G36*
X54501Y18518D02*
X54509Y18496D01*
X54521Y18477D01*
X54539Y18461D01*
X54563Y18447D01*
X54591Y18435D01*
X54624Y18426D01*
X54663Y18420D01*
X54707Y18416D01*
X54755Y18415D01*
Y18161D01*
X54707Y18160D01*
X54663Y18156D01*
X54624Y18150D01*
X54591Y18141D01*
X54563Y18129D01*
X54539Y18115D01*
X54521Y18099D01*
X54509Y18080D01*
X54501Y18058D01*
X54498Y18034D01*
Y18542D01*
X54501Y18518D01*
D02*
G37*
G36*
X56106Y17763D02*
X56030Y17839D01*
X55884Y17966D01*
X55815Y18018D01*
X55748Y18062D01*
X55684Y18097D01*
X55622Y18125D01*
X55563Y18145D01*
X55507Y18157D01*
X55453Y18161D01*
Y18415D01*
X55507Y18419D01*
X55563Y18431D01*
X55622Y18451D01*
X55684Y18479D01*
X55748Y18514D01*
X55815Y18558D01*
X55884Y18610D01*
X56030Y18737D01*
X56106Y18813D01*
Y17763D01*
D02*
G37*
G36*
X19443Y21148D02*
X19457Y20914D01*
X19471Y20811D01*
X19489Y20718D01*
X19510Y20634D01*
X19537Y20560D01*
X19567Y20495D01*
X19602Y20440D01*
X19641Y20394D01*
X19461Y20215D01*
X19415Y20254D01*
X19360Y20288D01*
X19295Y20319D01*
X19221Y20345D01*
X19137Y20367D01*
X19044Y20385D01*
X18941Y20398D01*
X18707Y20412D01*
X18576Y20413D01*
X19442Y21279D01*
X19443Y21148D01*
D02*
G37*
G36*
X46344Y19908D02*
X46258Y19806D01*
X46223Y19756D01*
X46194Y19707D01*
X46169Y19659D01*
X46151Y19612D01*
X46137Y19565D01*
X46129Y19519D01*
X46126Y19474D01*
X45872D01*
X45870Y19519D01*
X45862Y19565D01*
X45848Y19612D01*
X45829Y19659D01*
X45805Y19707D01*
X45776Y19756D01*
X45741Y19806D01*
X45701Y19857D01*
X45655Y19908D01*
X45604Y19961D01*
X46395D01*
X46344Y19908D01*
D02*
G37*
G36*
X42055Y16830D02*
X41947Y16829D01*
X41754Y16816D01*
X41668Y16803D01*
X41590Y16787D01*
X41520Y16767D01*
X41456Y16743D01*
X41401Y16716D01*
X41352Y16684D01*
X41311Y16649D01*
X41132Y16829D01*
X41167Y16869D01*
X41199Y16918D01*
X41226Y16974D01*
X41250Y17037D01*
X41270Y17108D01*
X41286Y17186D01*
X41299Y17271D01*
X41312Y17464D01*
X41312Y17572D01*
X42055Y16830D01*
D02*
G37*
G36*
X32759Y14625D02*
X32904Y14498D01*
X32974Y14446D01*
X33040Y14403D01*
X33104Y14367D01*
X33166Y14339D01*
X33225Y14319D01*
X33281Y14307D01*
X33335Y14303D01*
Y14049D01*
X33281Y14045D01*
X33225Y14033D01*
X33166Y14013D01*
X33104Y13985D01*
X33040Y13950D01*
X32974Y13906D01*
X32904Y13854D01*
X32759Y13727D01*
X32682Y13651D01*
Y14701D01*
X32759Y14625D01*
D02*
G37*
G36*
X32035Y13434D02*
X31934Y13447D01*
X31752Y13456D01*
X31670Y13452D01*
X31595Y13443D01*
X31526Y13428D01*
X31463Y13407D01*
X31407Y13381D01*
X31357Y13349D01*
X31314Y13312D01*
X31160Y13517D01*
X31192Y13554D01*
X31223Y13600D01*
X31251Y13654D01*
X31278Y13717D01*
X31303Y13789D01*
X31327Y13868D01*
X31368Y14054D01*
X31402Y14273D01*
X32035Y13434D01*
D02*
G37*
G36*
X42813Y10835D02*
X42826Y10642D01*
X42839Y10556D01*
X42855Y10478D01*
X42875Y10408D01*
X42899Y10344D01*
X42926Y10288D01*
X42958Y10240D01*
X42993Y10199D01*
X42813Y10020D01*
X42772Y10055D01*
X42724Y10086D01*
X42668Y10114D01*
X42605Y10138D01*
X42534Y10158D01*
X42456Y10174D01*
X42371Y10186D01*
X42178Y10199D01*
X42070Y10200D01*
X42812Y10943D01*
X42813Y10835D01*
D02*
G37*
G36*
X26476Y8474D02*
X26444Y8436D01*
X26413Y8390D01*
X26384Y8334D01*
X26357Y8270D01*
X26332Y8198D01*
X26308Y8116D01*
X26301Y8086D01*
X26318Y8074D01*
X26386Y8029D01*
X26451Y7993D01*
X26513Y7964D01*
X26573Y7944D01*
X26630Y7932D01*
X26685Y7928D01*
Y7674D01*
X26630Y7670D01*
X26573Y7657D01*
X26513Y7637D01*
X26451Y7609D01*
X26386Y7572D01*
X26318Y7527D01*
X26253Y7479D01*
X26265Y7399D01*
X26281Y7319D01*
X26301Y7247D01*
X26325Y7183D01*
X26353Y7126D01*
X26385Y7077D01*
X26421Y7036D01*
X26241Y6856D01*
X26200Y6892D01*
X26150Y6924D01*
X26094Y6952D01*
X26030Y6976D01*
X25958Y6996D01*
X25878Y7012D01*
X25791Y7025D01*
X25594Y7038D01*
X25484Y7039D01*
X26020Y7575D01*
Y7983D01*
X25588Y8554D01*
X25691Y8541D01*
X25877Y8533D01*
X25960Y8536D01*
X26037Y8546D01*
X26107Y8561D01*
X26171Y8582D01*
X26228Y8609D01*
X26278Y8641D01*
X26322Y8679D01*
X26476Y8474D01*
D02*
G37*
G36*
X24753Y8709D02*
X24802Y8677D01*
X24859Y8650D01*
X24923Y8625D01*
X24995Y8605D01*
X25074Y8589D01*
X25161Y8577D01*
X25359Y8563D01*
X25469Y8563D01*
X24714Y7808D01*
X24713Y7918D01*
X24700Y8115D01*
X24688Y8203D01*
X24671Y8282D01*
X24651Y8354D01*
X24627Y8418D01*
X24599Y8475D01*
X24568Y8524D01*
X24532Y8565D01*
X24711Y8745D01*
X24753Y8709D01*
D02*
G37*
G36*
X56106Y7603D02*
X56030Y7679D01*
X55884Y7806D01*
X55815Y7858D01*
X55748Y7902D01*
X55684Y7937D01*
X55622Y7965D01*
X55563Y7985D01*
X55507Y7997D01*
X55453Y8001D01*
Y8255D01*
X55507Y8259D01*
X55563Y8271D01*
X55622Y8291D01*
X55684Y8319D01*
X55748Y8354D01*
X55815Y8398D01*
X55884Y8450D01*
X56030Y8577D01*
X56106Y8653D01*
Y7603D01*
D02*
G37*
G36*
X56634Y4838D02*
X56527Y4837D01*
X56334Y4824D01*
X56248Y4812D01*
X56170Y4796D01*
X56099Y4776D01*
X56036Y4752D01*
X55980Y4724D01*
X55932Y4693D01*
X55891Y4657D01*
X55711Y4837D01*
X55747Y4878D01*
X55778Y4926D01*
X55806Y4982D01*
X55830Y5045D01*
X55850Y5116D01*
X55866Y5194D01*
X55878Y5280D01*
X55891Y5473D01*
X55892Y5581D01*
X56634Y4838D01*
D02*
G37*
G36*
X14180Y3568D02*
X14356Y3413D01*
X14438Y3350D01*
X14516Y3296D01*
X14591Y3253D01*
X14662Y3219D01*
X14729Y3194D01*
X14793Y3180D01*
X14853Y3175D01*
Y2921D01*
X14793Y2916D01*
X14729Y2902D01*
X14662Y2877D01*
X14591Y2843D01*
X14516Y2800D01*
X14438Y2746D01*
X14356Y2683D01*
X14180Y2528D01*
X14087Y2435D01*
Y3661D01*
X14180Y3568D01*
D02*
G37*
D12*
X30229Y3048D02*
X37795D01*
X37846Y3099D01*
X54016Y18288D02*
X56642D01*
X53939Y18364D02*
Y20364D01*
X24903Y21780D02*
X34975Y31852D01*
X35512Y21288D02*
X41046Y26822D01*
X49013D02*
X51337Y24498D01*
X41046Y26822D02*
X49013D01*
X51337Y24498D02*
X55512D01*
X56642Y23368D01*
X34831Y17580D02*
X42696Y25444D01*
X45999D01*
X32062Y17580D02*
X34831D01*
X54864Y31852D02*
X55347Y31369D01*
X34975Y31852D02*
X54864D01*
X44079Y20984D02*
X45999Y22904D01*
X44079Y16109D02*
Y20984D01*
X42672Y12294D02*
X45999Y15621D01*
Y20364D01*
X42146Y14176D02*
X44079Y16109D01*
X15443Y3048D02*
X16866Y1626D01*
X52680D02*
X56642Y5588D01*
X16866Y1626D02*
X52680D01*
X22043Y11233D02*
X25476Y7801D01*
X22043Y11233D02*
Y17812D01*
X42062Y10950D02*
X44885Y8128D01*
X56642D01*
X40208Y12294D02*
X42672D01*
X35715Y7801D02*
X40208Y12294D01*
X25624Y7801D02*
X35715D01*
X13462Y3048D02*
X15443D01*
X25550Y7727D02*
X30229Y3048D01*
X25476Y7801D02*
X25624D01*
X32146Y14176D02*
X38659D01*
X42062Y17580D02*
X42062D01*
X38659Y14176D02*
X42062Y17580D01*
X31999Y14176D02*
X32146D01*
X33807Y21288D02*
X35512D01*
X57175Y29718D02*
X57937Y28956D01*
X56642Y25908D02*
X57937Y27203D01*
Y28956D01*
X55347Y30353D02*
X55982Y29718D01*
X57175D01*
X55347Y30353D02*
Y31369D01*
X24903Y20029D02*
Y21780D01*
X23622Y18748D02*
X24903Y20029D01*
X53939Y18364D02*
X54016Y18288D01*
X25624Y7801D02*
X31999Y14176D01*
X18567Y21288D02*
X22043Y17812D01*
D20*
X53939Y20364D02*
D03*
D21*
Y22904D02*
D03*
Y25444D02*
D03*
Y27984D02*
D03*
Y30524D02*
D03*
Y33064D02*
D03*
Y35604D02*
D03*
Y38144D02*
D03*
X45999D02*
D03*
Y35604D02*
D03*
Y33064D02*
D03*
Y30524D02*
D03*
Y27984D02*
D03*
Y25444D02*
D03*
Y22904D02*
D03*
Y20364D02*
D03*
D22*
X13462Y3048D02*
D03*
X18542D02*
D03*
X23622D02*
D03*
X13462Y18748D02*
D03*
X18542D02*
D03*
X23622D02*
D03*
D23*
X25476Y7801D02*
D03*
Y14024D02*
D03*
X37846Y3099D02*
D03*
X42926D02*
D03*
X1524Y38506D02*
D03*
X1549Y1499D02*
D03*
X58522D02*
D03*
X58496Y38506D02*
D03*
D24*
X32062Y17580D02*
D03*
X42062D02*
D03*
X32062Y10950D02*
D03*
X42062D02*
D03*
X42146Y14176D02*
D03*
X32146D02*
D03*
X56642Y3048D02*
D03*
Y5588D02*
D03*
Y8128D02*
D03*
Y10668D02*
D03*
Y13208D02*
D03*
Y15748D02*
D03*
Y18288D02*
D03*
Y20828D02*
D03*
Y23368D02*
D03*
Y25908D02*
D03*
Y28448D02*
D03*
Y30988D02*
D03*
Y33528D02*
D03*
D25*
X16027Y21288D02*
D03*
X18567D02*
D03*
X21107D02*
D03*
X33807D02*
D03*
X31267D02*
D03*
X28727D02*
D03*
X26187D02*
D03*
X23647D02*
D03*
D26*
X56642Y36068D02*
D03*
M02*
