G04*
G04 #@! TF.GenerationSoftware,Altium Limited,Altium Designer,20.2.6 (244)*
G04*
G04 Layer_Physical_Order=2*
G04 Layer_Color=16711680*
%FSLAX43Y43*%
%MOMM*%
G71*
G04*
G04 #@! TF.SameCoordinates,70A9E041-225B-441C-BFEB-4F53169E124C*
G04*
G04*
G04 #@! TF.FilePolarity,Positive*
G04*
G01*
G75*
%ADD12C,0.254*%
%ADD20R,1.130X1.130*%
%ADD21C,1.130*%
%ADD22C,1.750*%
%ADD23C,1.524*%
%ADD24C,1.500*%
%ADD25C,1.750*%
%ADD26R,1.500X1.500*%
G36*
X56Y1655D02*
X183Y1647D01*
X210Y1852D01*
X346Y2181D01*
X564Y2464D01*
X846Y2681D01*
X1176Y2818D01*
X1529Y2864D01*
X1883Y2818D01*
X2212Y2681D01*
X2394Y2541D01*
X2499Y2621D01*
X2431Y2786D01*
X2396Y3048D01*
X2431Y3310D01*
X2532Y3554D01*
X2693Y3764D01*
X2902Y3925D01*
X3147Y4026D01*
X3409Y4061D01*
X3671Y4026D01*
X3915Y3925D01*
X4125Y3764D01*
X4286Y3554D01*
X4387Y3310D01*
X4421Y3048D01*
X4387Y2786D01*
X4286Y2542D01*
X4125Y2332D01*
X3915Y2171D01*
X3671Y2070D01*
X3409Y2035D01*
X3147Y2070D01*
X2902Y2171D01*
X2831Y2226D01*
X2727Y2146D01*
X2848Y1852D01*
X2895Y1499D01*
X2848Y1145D01*
X2712Y816D01*
X2495Y533D01*
X2212Y316D01*
X1883Y179D01*
X1529Y133D01*
X1176Y179D01*
X846Y316D01*
X564Y533D01*
X346Y816D01*
X210Y1145D01*
X183Y1351D01*
X56Y1342D01*
Y0D01*
X60051D01*
Y40005D01*
X56D01*
Y1655D01*
D02*
G37*
%LPC*%
G36*
X6111Y38970D02*
X6325Y38942D01*
X6524Y38859D01*
X6696Y38728D01*
X6827Y38557D01*
X6909Y38358D01*
X6937Y38144D01*
X6909Y37930D01*
X6827Y37731D01*
X6696Y37560D01*
X6524Y37429D01*
X6325Y37346D01*
X6111Y37318D01*
X5898Y37346D01*
X5698Y37429D01*
X5527Y37560D01*
X5396Y37731D01*
X5313Y37930D01*
X5285Y38144D01*
X5313Y38358D01*
X5396Y38557D01*
X5527Y38728D01*
X5698Y38859D01*
X5898Y38942D01*
X6111Y38970D01*
D02*
G37*
G36*
X14051D02*
X14265Y38942D01*
X14464Y38859D01*
X14636Y38728D01*
X14767Y38557D01*
X14849Y38358D01*
X14877Y38144D01*
X14849Y37930D01*
X14767Y37731D01*
X14636Y37560D01*
X14464Y37429D01*
X14265Y37346D01*
X14051Y37318D01*
X13838Y37346D01*
X13638Y37429D01*
X13467Y37560D01*
X13336Y37731D01*
X13253Y37930D01*
X13225Y38144D01*
X13253Y38358D01*
X13336Y38557D01*
X13467Y38728D01*
X13638Y38859D01*
X13838Y38942D01*
X14051Y38970D01*
D02*
G37*
G36*
X1555Y39872D02*
X1908Y39826D01*
X2237Y39689D01*
X2520Y39472D01*
X2737Y39189D01*
X2874Y38860D01*
X2920Y38506D01*
X2874Y38153D01*
X2737Y37824D01*
X2520Y37541D01*
X2237Y37324D01*
X1908Y37187D01*
X1555Y37141D01*
X1201Y37187D01*
X872Y37324D01*
X589Y37541D01*
X372Y37824D01*
X235Y38153D01*
X189Y38506D01*
X235Y38860D01*
X372Y39189D01*
X589Y39472D01*
X872Y39689D01*
X1201Y39826D01*
X1555Y39872D01*
D02*
G37*
G36*
X58527D02*
X58880Y39826D01*
X59210Y39689D01*
X59492Y39472D01*
X59710Y39189D01*
X59846Y38860D01*
X59892Y38506D01*
X59846Y38153D01*
X59710Y37824D01*
X59492Y37541D01*
X59210Y37324D01*
X58880Y37187D01*
X58527Y37141D01*
X58173Y37187D01*
X57844Y37324D01*
X57561Y37541D01*
X57344Y37824D01*
X57208Y38153D01*
X57161Y38506D01*
X57208Y38860D01*
X57344Y39189D01*
X57561Y39472D01*
X57844Y39689D01*
X58173Y39826D01*
X58527Y39872D01*
D02*
G37*
G36*
X2405Y37072D02*
X4413D01*
Y35064D01*
X2405D01*
Y37072D01*
D02*
G37*
G36*
X6111Y36430D02*
X6325Y36402D01*
X6524Y36319D01*
X6696Y36188D01*
X6827Y36017D01*
X6909Y35818D01*
X6937Y35604D01*
X6909Y35390D01*
X6827Y35191D01*
X6696Y35020D01*
X6524Y34889D01*
X6325Y34806D01*
X6111Y34778D01*
X5898Y34806D01*
X5698Y34889D01*
X5527Y35020D01*
X5396Y35191D01*
X5313Y35390D01*
X5285Y35604D01*
X5313Y35818D01*
X5396Y36017D01*
X5527Y36188D01*
X5698Y36319D01*
X5898Y36402D01*
X6111Y36430D01*
D02*
G37*
G36*
X14051D02*
X14265Y36402D01*
X14464Y36319D01*
X14636Y36188D01*
X14767Y36017D01*
X14849Y35818D01*
X14877Y35604D01*
X14849Y35390D01*
X14767Y35191D01*
X14636Y35020D01*
X14464Y34889D01*
X14265Y34806D01*
X14051Y34778D01*
X13838Y34806D01*
X13638Y34889D01*
X13467Y35020D01*
X13336Y35191D01*
X13253Y35390D01*
X13225Y35604D01*
X13253Y35818D01*
X13336Y36017D01*
X13467Y36188D01*
X13638Y36319D01*
X13838Y36402D01*
X14051Y36430D01*
D02*
G37*
G36*
X3409Y34541D02*
X3671Y34506D01*
X3915Y34405D01*
X4125Y34244D01*
X4286Y34034D01*
X4387Y33790D01*
X4421Y33528D01*
X4387Y33266D01*
X4286Y33022D01*
X4125Y32812D01*
X3915Y32651D01*
X3671Y32550D01*
X3409Y32515D01*
X3147Y32550D01*
X2902Y32651D01*
X2693Y32812D01*
X2532Y33022D01*
X2431Y33266D01*
X2396Y33528D01*
X2431Y33790D01*
X2532Y34034D01*
X2693Y34244D01*
X2902Y34405D01*
X3147Y34506D01*
X3409Y34541D01*
D02*
G37*
G36*
X6111Y33890D02*
X6325Y33862D01*
X6524Y33779D01*
X6696Y33648D01*
X6827Y33477D01*
X6909Y33278D01*
X6937Y33064D01*
X6909Y32850D01*
X6827Y32651D01*
X6696Y32480D01*
X6524Y32349D01*
X6325Y32266D01*
X6111Y32238D01*
X5898Y32266D01*
X5698Y32349D01*
X5527Y32480D01*
X5396Y32651D01*
X5313Y32850D01*
X5285Y33064D01*
X5313Y33278D01*
X5396Y33477D01*
X5527Y33648D01*
X5698Y33779D01*
X5898Y33862D01*
X6111Y33890D01*
D02*
G37*
G36*
X14051D02*
X14265Y33862D01*
X14464Y33779D01*
X14636Y33648D01*
X14767Y33477D01*
X14849Y33278D01*
X14877Y33064D01*
X14849Y32850D01*
X14767Y32651D01*
X14636Y32480D01*
X14464Y32349D01*
X14265Y32266D01*
X14051Y32238D01*
X13838Y32266D01*
X13638Y32349D01*
X13467Y32480D01*
X13336Y32651D01*
X13253Y32850D01*
X13225Y33064D01*
X13253Y33278D01*
X13336Y33477D01*
X13467Y33648D01*
X13638Y33779D01*
X13838Y33862D01*
X14051Y33890D01*
D02*
G37*
G36*
X3409Y32001D02*
X3671Y31966D01*
X3915Y31865D01*
X4125Y31704D01*
X4286Y31494D01*
X4387Y31250D01*
X4421Y30988D01*
X4387Y30726D01*
X4286Y30482D01*
X4125Y30272D01*
X3915Y30111D01*
X3671Y30010D01*
X3409Y29975D01*
X3147Y30010D01*
X2902Y30111D01*
X2693Y30272D01*
X2532Y30482D01*
X2431Y30726D01*
X2396Y30988D01*
X2431Y31250D01*
X2532Y31494D01*
X2693Y31704D01*
X2902Y31865D01*
X3147Y31966D01*
X3409Y32001D01*
D02*
G37*
G36*
X6111Y31350D02*
X6325Y31322D01*
X6524Y31239D01*
X6696Y31108D01*
X6827Y30937D01*
X6909Y30738D01*
X6937Y30524D01*
X6909Y30310D01*
X6899Y30286D01*
X10356Y26829D01*
X10440Y26703D01*
X10470Y26554D01*
Y24495D01*
X13813Y21152D01*
X13838Y21162D01*
X14051Y21190D01*
X14265Y21162D01*
X14464Y21079D01*
X14636Y20948D01*
X14767Y20777D01*
X14849Y20578D01*
X14877Y20364D01*
X14849Y20150D01*
X14767Y19951D01*
X14636Y19780D01*
X14464Y19649D01*
X14265Y19566D01*
X14051Y19538D01*
X13838Y19566D01*
X13638Y19649D01*
X13467Y19780D01*
X13336Y19951D01*
X13253Y20150D01*
X13225Y20364D01*
X13253Y20578D01*
X13264Y20602D01*
X9807Y24059D01*
X9722Y24185D01*
X9693Y24334D01*
Y26393D01*
X6350Y29736D01*
X6325Y29726D01*
X6111Y29698D01*
X5898Y29726D01*
X5698Y29809D01*
X5527Y29940D01*
X5396Y30111D01*
X5313Y30310D01*
X5285Y30524D01*
X5313Y30738D01*
X5396Y30937D01*
X5527Y31108D01*
X5698Y31239D01*
X5898Y31322D01*
X6111Y31350D01*
D02*
G37*
G36*
X14051D02*
X14265Y31322D01*
X14464Y31239D01*
X14636Y31108D01*
X14767Y30937D01*
X14849Y30738D01*
X14877Y30524D01*
X14849Y30310D01*
X14767Y30111D01*
X14636Y29940D01*
X14464Y29809D01*
X14265Y29726D01*
X14051Y29698D01*
X13838Y29726D01*
X13638Y29809D01*
X13467Y29940D01*
X13336Y30111D01*
X13253Y30310D01*
X13225Y30524D01*
X13253Y30738D01*
X13336Y30937D01*
X13467Y31108D01*
X13638Y31239D01*
X13838Y31322D01*
X14051Y31350D01*
D02*
G37*
G36*
X3409Y29461D02*
X3671Y29426D01*
X3915Y29325D01*
X4125Y29164D01*
X4286Y28954D01*
X4387Y28710D01*
X4421Y28448D01*
X4387Y28186D01*
X4286Y27942D01*
X4125Y27732D01*
X3915Y27571D01*
X3671Y27470D01*
X3409Y27435D01*
X3147Y27470D01*
X2902Y27571D01*
X2693Y27732D01*
X2532Y27942D01*
X2431Y28186D01*
X2396Y28448D01*
X2431Y28710D01*
X2532Y28954D01*
X2693Y29164D01*
X2902Y29325D01*
X3147Y29426D01*
X3409Y29461D01*
D02*
G37*
G36*
X6111Y28810D02*
X6325Y28782D01*
X6524Y28699D01*
X6696Y28568D01*
X6827Y28397D01*
X6909Y28198D01*
X6937Y27984D01*
X6909Y27770D01*
X6827Y27571D01*
X6696Y27400D01*
X6524Y27269D01*
X6325Y27186D01*
X6111Y27158D01*
X5898Y27186D01*
X5698Y27269D01*
X5527Y27400D01*
X5396Y27571D01*
X5313Y27770D01*
X5285Y27984D01*
X5313Y28198D01*
X5396Y28397D01*
X5527Y28568D01*
X5698Y28699D01*
X5898Y28782D01*
X6111Y28810D01*
D02*
G37*
G36*
X14051D02*
X14265Y28782D01*
X14464Y28699D01*
X14636Y28568D01*
X14767Y28397D01*
X14849Y28198D01*
X14877Y27984D01*
X14849Y27770D01*
X14767Y27571D01*
X14636Y27400D01*
X14464Y27269D01*
X14265Y27186D01*
X14051Y27158D01*
X13838Y27186D01*
X13638Y27269D01*
X13467Y27400D01*
X13336Y27571D01*
X13253Y27770D01*
X13225Y27984D01*
X13253Y28198D01*
X13336Y28397D01*
X13467Y28568D01*
X13638Y28699D01*
X13838Y28782D01*
X14051Y28810D01*
D02*
G37*
G36*
X3409Y26921D02*
X3671Y26886D01*
X3915Y26785D01*
X4125Y26624D01*
X4286Y26414D01*
X4387Y26170D01*
X4421Y25908D01*
X4387Y25646D01*
X4286Y25402D01*
X4125Y25192D01*
X3915Y25031D01*
X3671Y24930D01*
X3409Y24895D01*
X3147Y24930D01*
X2902Y25031D01*
X2693Y25192D01*
X2532Y25402D01*
X2431Y25646D01*
X2396Y25908D01*
X2431Y26170D01*
X2532Y26414D01*
X2693Y26624D01*
X2902Y26785D01*
X3147Y26886D01*
X3409Y26921D01*
D02*
G37*
G36*
X6111Y26270D02*
X6325Y26242D01*
X6524Y26159D01*
X6696Y26028D01*
X6827Y25857D01*
X6909Y25658D01*
X6937Y25444D01*
X6909Y25230D01*
X6827Y25031D01*
X6696Y24860D01*
X6524Y24729D01*
X6325Y24646D01*
X6111Y24618D01*
X5898Y24646D01*
X5698Y24729D01*
X5527Y24860D01*
X5396Y25031D01*
X5313Y25230D01*
X5285Y25444D01*
X5313Y25658D01*
X5396Y25857D01*
X5527Y26028D01*
X5698Y26159D01*
X5898Y26242D01*
X6111Y26270D01*
D02*
G37*
G36*
X14051D02*
X14265Y26242D01*
X14464Y26159D01*
X14636Y26028D01*
X14767Y25857D01*
X14849Y25658D01*
X14877Y25444D01*
X14849Y25230D01*
X14767Y25031D01*
X14636Y24860D01*
X14464Y24729D01*
X14265Y24646D01*
X14051Y24618D01*
X13838Y24646D01*
X13638Y24729D01*
X13467Y24860D01*
X13336Y25031D01*
X13253Y25230D01*
X13225Y25444D01*
X13253Y25658D01*
X13336Y25857D01*
X13467Y26028D01*
X13638Y26159D01*
X13838Y26242D01*
X14051Y26270D01*
D02*
G37*
G36*
X3409Y24381D02*
X3671Y24346D01*
X3915Y24245D01*
X4125Y24084D01*
X4286Y23874D01*
X4387Y23630D01*
X4421Y23368D01*
X4387Y23106D01*
X4286Y22862D01*
X4125Y22652D01*
X3915Y22491D01*
X3671Y22390D01*
X3409Y22355D01*
X3147Y22390D01*
X2902Y22491D01*
X2693Y22652D01*
X2532Y22862D01*
X2431Y23106D01*
X2396Y23368D01*
X2431Y23630D01*
X2532Y23874D01*
X2693Y24084D01*
X2902Y24245D01*
X3147Y24346D01*
X3409Y24381D01*
D02*
G37*
G36*
X6111Y23730D02*
X6325Y23702D01*
X6524Y23619D01*
X6696Y23488D01*
X6827Y23317D01*
X6909Y23118D01*
X6937Y22904D01*
X6909Y22690D01*
X6827Y22491D01*
X6696Y22320D01*
X6524Y22189D01*
X6325Y22106D01*
X6111Y22078D01*
X5898Y22106D01*
X5698Y22189D01*
X5527Y22320D01*
X5396Y22491D01*
X5313Y22690D01*
X5285Y22904D01*
X5313Y23118D01*
X5396Y23317D01*
X5527Y23488D01*
X5698Y23619D01*
X5898Y23702D01*
X6111Y23730D01*
D02*
G37*
G36*
X14051D02*
X14265Y23702D01*
X14464Y23619D01*
X14636Y23488D01*
X14767Y23317D01*
X14849Y23118D01*
X14877Y22904D01*
X14849Y22690D01*
X14767Y22491D01*
X14636Y22320D01*
X14464Y22189D01*
X14265Y22106D01*
X14051Y22078D01*
X13838Y22106D01*
X13638Y22189D01*
X13467Y22320D01*
X13336Y22491D01*
X13253Y22690D01*
X13225Y22904D01*
X13253Y23118D01*
X13336Y23317D01*
X13467Y23488D01*
X13638Y23619D01*
X13838Y23702D01*
X14051Y23730D01*
D02*
G37*
G36*
X28656Y22410D02*
Y21415D01*
X27661D01*
X27683Y21583D01*
X27797Y21857D01*
X27978Y22093D01*
X28214Y22274D01*
X28489Y22388D01*
X28656Y22410D01*
D02*
G37*
G36*
X28910D02*
X29078Y22388D01*
X29353Y22274D01*
X29589Y22093D01*
X29770Y21857D01*
X29883Y21583D01*
X29905Y21415D01*
X28910D01*
Y22410D01*
D02*
G37*
G36*
X33736D02*
Y21415D01*
X32741D01*
X32763Y21583D01*
X32877Y21857D01*
X33058Y22093D01*
X33294Y22274D01*
X33569Y22388D01*
X33736Y22410D01*
D02*
G37*
G36*
X33990D02*
X34158Y22388D01*
X34433Y22274D01*
X34669Y22093D01*
X34850Y21857D01*
X34963Y21583D01*
X34985Y21415D01*
X33990D01*
Y22410D01*
D02*
G37*
G36*
X3282Y21824D02*
Y20955D01*
X2413D01*
X2431Y21090D01*
X2532Y21334D01*
X2693Y21544D01*
X2902Y21705D01*
X3147Y21806D01*
X3282Y21824D01*
D02*
G37*
G36*
X3536D02*
X3671Y21806D01*
X3915Y21705D01*
X4125Y21544D01*
X4286Y21334D01*
X4387Y21090D01*
X4405Y20955D01*
X3536D01*
Y21824D01*
D02*
G37*
G36*
X27661Y21161D02*
X28656D01*
Y20166D01*
X28489Y20188D01*
X28214Y20302D01*
X27978Y20483D01*
X27797Y20719D01*
X27683Y20993D01*
X27661Y21161D01*
D02*
G37*
G36*
X28910D02*
X29905D01*
X29883Y20993D01*
X29770Y20719D01*
X29589Y20483D01*
X29353Y20302D01*
X29078Y20188D01*
X28910Y20166D01*
Y21161D01*
D02*
G37*
G36*
X32741D02*
X33736D01*
Y20166D01*
X33569Y20188D01*
X33294Y20302D01*
X33058Y20483D01*
X32877Y20719D01*
X32763Y20993D01*
X32741Y21161D01*
D02*
G37*
G36*
X33990D02*
X34985D01*
X34963Y20993D01*
X34850Y20719D01*
X34669Y20483D01*
X34433Y20302D01*
X34158Y20188D01*
X33990Y20166D01*
Y21161D01*
D02*
G37*
G36*
X26243Y22427D02*
X26538Y22388D01*
X26813Y22274D01*
X27049Y22093D01*
X27230Y21857D01*
X27343Y21583D01*
X27382Y21288D01*
X27343Y20993D01*
X27230Y20719D01*
X27049Y20483D01*
X26813Y20302D01*
X26538Y20188D01*
X26243Y20149D01*
X25949Y20188D01*
X25674Y20302D01*
X25438Y20483D01*
X25257Y20719D01*
X25143Y20993D01*
X25105Y21288D01*
X25143Y21583D01*
X25257Y21857D01*
X25438Y22093D01*
X25674Y22274D01*
X25949Y22388D01*
X26243Y22427D01*
D02*
G37*
G36*
X31323D02*
X31618Y22388D01*
X31893Y22274D01*
X32129Y22093D01*
X32310Y21857D01*
X32423Y21583D01*
X32462Y21288D01*
X32423Y20993D01*
X32310Y20719D01*
X32129Y20483D01*
X31893Y20302D01*
X31618Y20188D01*
X31323Y20149D01*
X31029Y20188D01*
X30754Y20302D01*
X30518Y20483D01*
X30337Y20719D01*
X30223Y20993D01*
X30185Y21288D01*
X30223Y21583D01*
X30337Y21857D01*
X30518Y22093D01*
X30754Y22274D01*
X31029Y22388D01*
X31323Y22427D01*
D02*
G37*
G36*
X38943D02*
X39238Y22388D01*
X39513Y22274D01*
X39749Y22093D01*
X39930Y21857D01*
X40043Y21583D01*
X40082Y21288D01*
X40043Y20993D01*
X39930Y20719D01*
X39749Y20483D01*
X39513Y20302D01*
X39238Y20188D01*
X38943Y20149D01*
X38649Y20188D01*
X38374Y20302D01*
X38138Y20483D01*
X37957Y20719D01*
X37843Y20993D01*
X37805Y21288D01*
X37843Y21583D01*
X37957Y21857D01*
X38138Y22093D01*
X38374Y22274D01*
X38649Y22388D01*
X38943Y22427D01*
D02*
G37*
G36*
X41483D02*
X41778Y22388D01*
X42053Y22274D01*
X42289Y22093D01*
X42470Y21857D01*
X42583Y21583D01*
X42622Y21288D01*
X42583Y20993D01*
X42470Y20719D01*
X42289Y20483D01*
X42053Y20302D01*
X41778Y20188D01*
X41483Y20149D01*
X41189Y20188D01*
X40914Y20302D01*
X40678Y20483D01*
X40497Y20719D01*
X40383Y20993D01*
X40345Y21288D01*
X40383Y21583D01*
X40497Y21857D01*
X40678Y22093D01*
X40914Y22274D01*
X41189Y22388D01*
X41483Y22427D01*
D02*
G37*
G36*
X44023D02*
X44318Y22388D01*
X44593Y22274D01*
X44829Y22093D01*
X45010Y21857D01*
X45123Y21583D01*
X45162Y21288D01*
X45123Y20993D01*
X45010Y20719D01*
X44829Y20483D01*
X44593Y20302D01*
X44318Y20188D01*
X44023Y20149D01*
X43729Y20188D01*
X43454Y20302D01*
X43218Y20483D01*
X43037Y20719D01*
X42923Y20993D01*
X42885Y21288D01*
X42923Y21583D01*
X43037Y21857D01*
X43218Y22093D01*
X43454Y22274D01*
X43729Y22388D01*
X44023Y22427D01*
D02*
G37*
G36*
X2413Y20701D02*
X3282D01*
Y19832D01*
X3147Y19850D01*
X2902Y19951D01*
X2693Y20112D01*
X2532Y20322D01*
X2431Y20566D01*
X2413Y20701D01*
D02*
G37*
G36*
X3536D02*
X4405D01*
X4387Y20566D01*
X4286Y20322D01*
X4125Y20112D01*
X3915Y19951D01*
X3671Y19850D01*
X3536Y19832D01*
Y20701D01*
D02*
G37*
G36*
X36429Y19887D02*
X36724Y19848D01*
X36998Y19734D01*
X37234Y19553D01*
X37415Y19317D01*
X37529Y19043D01*
X37568Y18748D01*
X37529Y18453D01*
X37415Y18179D01*
X37234Y17943D01*
X36998Y17762D01*
X36724Y17648D01*
X36429Y17609D01*
X36134Y17648D01*
X35859Y17762D01*
X35624Y17943D01*
X35443Y18179D01*
X35329Y18453D01*
X35290Y18748D01*
X35329Y19043D01*
X35443Y19317D01*
X35624Y19553D01*
X35859Y19734D01*
X36134Y19848D01*
X36429Y19887D01*
D02*
G37*
G36*
X41509D02*
X41804Y19848D01*
X42078Y19734D01*
X42314Y19553D01*
X42495Y19317D01*
X42609Y19043D01*
X42648Y18748D01*
X42609Y18453D01*
X42495Y18179D01*
X42314Y17943D01*
X42078Y17762D01*
X41804Y17648D01*
X41509Y17609D01*
X41214Y17648D01*
X40939Y17762D01*
X40704Y17943D01*
X40523Y18179D01*
X40409Y18453D01*
X40370Y18748D01*
X40409Y19043D01*
X40523Y19317D01*
X40704Y19553D01*
X40939Y19734D01*
X41214Y19848D01*
X41509Y19887D01*
D02*
G37*
G36*
X46589D02*
X46884Y19848D01*
X47158Y19734D01*
X47394Y19553D01*
X47575Y19317D01*
X47689Y19043D01*
X47728Y18748D01*
X47689Y18453D01*
X47575Y18179D01*
X47394Y17943D01*
X47158Y17762D01*
X46884Y17648D01*
X46589Y17609D01*
X46294Y17648D01*
X46019Y17762D01*
X45784Y17943D01*
X45603Y18179D01*
X45489Y18453D01*
X45450Y18748D01*
X45489Y19043D01*
X45603Y19317D01*
X45784Y19553D01*
X46019Y19734D01*
X46294Y19848D01*
X46589Y19887D01*
D02*
G37*
G36*
X5292Y21183D02*
X6930D01*
Y19545D01*
X6500D01*
Y18364D01*
X6470Y18216D01*
X6386Y18090D01*
X6310Y18013D01*
X6184Y17929D01*
X6035Y17900D01*
X5769D01*
X5754Y17871D01*
X5743Y17862D01*
X5736Y17851D01*
X5705Y17830D01*
X5676Y17807D01*
X5663Y17802D01*
X5652Y17795D01*
X5615Y17788D01*
X5580Y17776D01*
X5566Y17778D01*
X5552Y17775D01*
X5516Y17782D01*
X5479Y17786D01*
X5467Y17792D01*
X5453Y17795D01*
X5423Y17815D01*
X5390Y17833D01*
X5381Y17843D01*
X5369Y17851D01*
X5349Y17882D01*
X5334Y17900D01*
X4578D01*
X4556Y17895D01*
X4523Y17884D01*
X4484Y17866D01*
X4437Y17840D01*
X4385Y17806D01*
X4330Y17764D01*
X4197Y17649D01*
X4142Y17594D01*
X4125Y17572D01*
X3915Y17411D01*
X3671Y17310D01*
X3409Y17275D01*
X3147Y17310D01*
X2902Y17411D01*
X2693Y17572D01*
X2532Y17782D01*
X2431Y18026D01*
X2396Y18288D01*
X2431Y18550D01*
X2532Y18794D01*
X2693Y19004D01*
X2902Y19165D01*
X3147Y19266D01*
X3409Y19301D01*
X3671Y19266D01*
X3915Y19165D01*
X4125Y19004D01*
X4142Y18982D01*
X4197Y18927D01*
X4330Y18812D01*
X4385Y18770D01*
X4437Y18736D01*
X4484Y18710D01*
X4523Y18692D01*
X4556Y18681D01*
X4578Y18676D01*
X5334D01*
X5349Y18694D01*
X5369Y18725D01*
X5381Y18733D01*
X5390Y18743D01*
X5423Y18761D01*
X5453Y18781D01*
X5467Y18784D01*
X5479Y18790D01*
X5516Y18794D01*
X5552Y18801D01*
X5566Y18798D01*
X5580Y18800D01*
X5596Y18795D01*
X5657Y18822D01*
X5706Y18861D01*
X5723Y18886D01*
Y19545D01*
X5292D01*
Y21183D01*
D02*
G37*
G36*
X17988Y18592D02*
X18250Y18558D01*
X18495Y18457D01*
X18704Y18296D01*
X18865Y18086D01*
X18967Y17842D01*
X19001Y17580D01*
X18967Y17317D01*
X18865Y17073D01*
X18704Y16864D01*
X18495Y16703D01*
X18250Y16601D01*
X17988Y16567D01*
X17726Y16601D01*
X17482Y16703D01*
X17272Y16864D01*
X17111Y17073D01*
X17010Y17317D01*
X16976Y17580D01*
X17010Y17842D01*
X17111Y18086D01*
X17272Y18296D01*
X17482Y18457D01*
X17726Y18558D01*
X17988Y18592D01*
D02*
G37*
G36*
X36403Y22427D02*
X36698Y22388D01*
X36973Y22274D01*
X37209Y22093D01*
X37390Y21857D01*
X37503Y21583D01*
X37542Y21288D01*
X37503Y20993D01*
X37390Y20719D01*
X37209Y20483D01*
X36973Y20302D01*
X36698Y20188D01*
X36403Y20149D01*
X36368Y20154D01*
X36272Y20153D01*
X36054Y20140D01*
X35968Y20129D01*
X35891Y20114D01*
X35826Y20097D01*
X35774Y20079D01*
X35735Y20061D01*
X35709Y20044D01*
X35709Y20044D01*
X34669Y19004D01*
X34543Y18920D01*
X34394Y18890D01*
X16829D01*
X13412Y15473D01*
X13286Y15389D01*
X13137Y15360D01*
X4335D01*
X4286Y15242D01*
X4125Y15032D01*
X3915Y14871D01*
X3671Y14770D01*
X3409Y14735D01*
X3147Y14770D01*
X2902Y14871D01*
X2693Y15032D01*
X2532Y15242D01*
X2431Y15486D01*
X2396Y15748D01*
X2431Y16010D01*
X2532Y16254D01*
X2693Y16464D01*
X2902Y16625D01*
X3147Y16726D01*
X3409Y16761D01*
X3671Y16726D01*
X3915Y16625D01*
X4125Y16464D01*
X4286Y16254D01*
X4335Y16136D01*
X12976D01*
X16393Y19553D01*
X16519Y19637D01*
X16668Y19667D01*
X34233D01*
X35160Y20594D01*
X35160Y20594D01*
X35176Y20620D01*
X35194Y20659D01*
X35213Y20710D01*
X35229Y20775D01*
X35244Y20852D01*
X35255Y20939D01*
X35269Y21157D01*
X35269Y21253D01*
X35265Y21288D01*
X35303Y21583D01*
X35417Y21857D01*
X35598Y22093D01*
X35834Y22274D01*
X36109Y22388D01*
X36403Y22427D01*
D02*
G37*
G36*
X34448Y15032D02*
Y14151D01*
X33567D01*
X33585Y14289D01*
X33687Y14536D01*
X33850Y14748D01*
X34062Y14911D01*
X34309Y15013D01*
X34448Y15032D01*
D02*
G37*
G36*
X34702D02*
X34840Y15013D01*
X35087Y14911D01*
X35299Y14748D01*
X35462Y14536D01*
X35564Y14289D01*
X35583Y14151D01*
X34702D01*
Y15032D01*
D02*
G37*
G36*
X3282Y14204D02*
Y13335D01*
X2413D01*
X2431Y13470D01*
X2532Y13714D01*
X2693Y13924D01*
X2902Y14085D01*
X3147Y14186D01*
X3282Y14204D01*
D02*
G37*
G36*
X3536D02*
X3671Y14186D01*
X3915Y14085D01*
X4125Y13924D01*
X4286Y13714D01*
X4387Y13470D01*
X4405Y13335D01*
X3536D01*
Y14204D01*
D02*
G37*
G36*
X17905Y15189D02*
X18167Y15154D01*
X18411Y15053D01*
X18621Y14892D01*
X18782Y14682D01*
X18883Y14438D01*
X18917Y14176D01*
X18883Y13914D01*
X18834Y13796D01*
X29194Y3436D01*
X35368D01*
X35443Y3617D01*
X35624Y3853D01*
X35859Y4034D01*
X36134Y4148D01*
X36429Y4187D01*
X36724Y4148D01*
X36998Y4034D01*
X37234Y3853D01*
X37415Y3617D01*
X37463Y3502D01*
X37590Y3527D01*
Y4236D01*
X35140Y6685D01*
X35121Y6698D01*
X35089Y6714D01*
X35047Y6729D01*
X34995Y6744D01*
X34932Y6757D01*
X34862Y6767D01*
X34683Y6779D01*
X34603Y6780D01*
X34575Y6776D01*
X34309Y6811D01*
X34062Y6913D01*
X33850Y7076D01*
X33687Y7288D01*
X33585Y7535D01*
X33550Y7801D01*
X33585Y8066D01*
X33687Y8313D01*
X33850Y8525D01*
X34062Y8688D01*
X34309Y8790D01*
X34575Y8825D01*
X34840Y8790D01*
X35087Y8688D01*
X35299Y8525D01*
X35462Y8313D01*
X35564Y8066D01*
X35599Y7801D01*
X35596Y7773D01*
X35596Y7693D01*
X35608Y7513D01*
X35618Y7443D01*
X35631Y7380D01*
X35646Y7328D01*
X35662Y7286D01*
X35677Y7254D01*
X35690Y7235D01*
X38253Y4672D01*
X38337Y4546D01*
X38367Y4397D01*
Y1851D01*
X38337Y1702D01*
X38253Y1576D01*
X38104Y1427D01*
X37978Y1343D01*
X37829Y1313D01*
X25075D01*
X24926Y1343D01*
X24800Y1427D01*
X23568Y2660D01*
X23123D01*
X23092Y2586D01*
X22929Y2374D01*
X22717Y2211D01*
X22470Y2109D01*
X22205Y2074D01*
X21940Y2109D01*
X21692Y2211D01*
X21480Y2374D01*
X21317Y2586D01*
X21215Y2834D01*
X21180Y3099D01*
X21215Y3364D01*
X21317Y3611D01*
X21480Y3823D01*
X21692Y3986D01*
X21940Y4089D01*
X22205Y4124D01*
X22470Y4089D01*
X22717Y3986D01*
X22929Y3823D01*
X23092Y3611D01*
X23165Y3436D01*
X23729D01*
X23877Y3407D01*
X24003Y3323D01*
X25236Y2090D01*
X35625D01*
X35666Y2211D01*
X35624Y2243D01*
X35443Y2479D01*
X35368Y2660D01*
X29033D01*
X28884Y2689D01*
X28758Y2773D01*
X18285Y13247D01*
X18167Y13198D01*
X17905Y13163D01*
X17642Y13198D01*
X17398Y13299D01*
X17189Y13460D01*
X17028Y13670D01*
X16926Y13914D01*
X16892Y14176D01*
X16926Y14438D01*
X17028Y14682D01*
X17189Y14892D01*
X17398Y15053D01*
X17642Y15154D01*
X17905Y15189D01*
D02*
G37*
G36*
X27905D02*
X28167Y15154D01*
X28411Y15053D01*
X28621Y14892D01*
X28782Y14682D01*
X28883Y14438D01*
X28917Y14176D01*
X28883Y13914D01*
X28782Y13670D01*
X28621Y13460D01*
X28411Y13299D01*
X28167Y13198D01*
X27905Y13163D01*
X27642Y13198D01*
X27398Y13299D01*
X27189Y13460D01*
X27028Y13670D01*
X26926Y13914D01*
X26892Y14176D01*
X26926Y14438D01*
X27028Y14682D01*
X27189Y14892D01*
X27398Y15053D01*
X27642Y15154D01*
X27905Y15189D01*
D02*
G37*
G36*
X33567Y13897D02*
X34448D01*
Y13016D01*
X34309Y13034D01*
X34062Y13136D01*
X33850Y13299D01*
X33687Y13511D01*
X33585Y13758D01*
X33567Y13897D01*
D02*
G37*
G36*
X34702D02*
X35583D01*
X35564Y13758D01*
X35462Y13511D01*
X35299Y13299D01*
X35087Y13136D01*
X34840Y13034D01*
X34702Y13016D01*
Y13897D01*
D02*
G37*
G36*
X2413Y13081D02*
X3282D01*
Y12212D01*
X3147Y12230D01*
X2902Y12331D01*
X2693Y12492D01*
X2532Y12702D01*
X2431Y12946D01*
X2413Y13081D01*
D02*
G37*
G36*
X3536D02*
X4405D01*
X4387Y12946D01*
X4286Y12702D01*
X4125Y12492D01*
X3915Y12331D01*
X3671Y12230D01*
X3536Y12212D01*
Y13081D01*
D02*
G37*
G36*
X27861Y11946D02*
Y11077D01*
X26992D01*
X27010Y11212D01*
X27111Y11457D01*
X27272Y11666D01*
X27482Y11827D01*
X27726Y11928D01*
X27861Y11946D01*
D02*
G37*
G36*
X28115D02*
X28250Y11928D01*
X28495Y11827D01*
X28704Y11666D01*
X28865Y11457D01*
X28967Y11212D01*
X28984Y11077D01*
X28115D01*
Y11946D01*
D02*
G37*
G36*
X26992Y10823D02*
X27861D01*
Y9954D01*
X27726Y9972D01*
X27482Y10073D01*
X27272Y10234D01*
X27111Y10444D01*
X27010Y10688D01*
X26992Y10823D01*
D02*
G37*
G36*
X28115D02*
X28984D01*
X28967Y10688D01*
X28865Y10444D01*
X28704Y10234D01*
X28495Y10073D01*
X28250Y9972D01*
X28115Y9954D01*
Y10823D01*
D02*
G37*
G36*
X17988Y11963D02*
X18250Y11928D01*
X18495Y11827D01*
X18704Y11666D01*
X18865Y11457D01*
X18967Y11212D01*
X19001Y10950D01*
X18967Y10688D01*
X18865Y10444D01*
X18704Y10234D01*
X18495Y10073D01*
X18250Y9972D01*
X17988Y9938D01*
X17726Y9972D01*
X17482Y10073D01*
X17272Y10234D01*
X17111Y10444D01*
X17010Y10688D01*
X16976Y10950D01*
X17010Y11212D01*
X17111Y11457D01*
X17272Y11666D01*
X17482Y11827D01*
X17726Y11928D01*
X17988Y11963D01*
D02*
G37*
G36*
X3409Y11681D02*
X3671Y11646D01*
X3915Y11545D01*
X4125Y11384D01*
X4286Y11174D01*
X4387Y10930D01*
X4421Y10668D01*
X4387Y10406D01*
X4286Y10162D01*
X4125Y9952D01*
X3915Y9791D01*
X3671Y9690D01*
X3409Y9655D01*
X3147Y9690D01*
X2902Y9791D01*
X2693Y9952D01*
X2532Y10162D01*
X2431Y10406D01*
X2396Y10668D01*
X2431Y10930D01*
X2532Y11174D01*
X2693Y11384D01*
X2902Y11545D01*
X3147Y11646D01*
X3409Y11681D01*
D02*
G37*
G36*
Y9141D02*
X3671Y9106D01*
X3915Y9005D01*
X4125Y8844D01*
X4286Y8634D01*
X4387Y8390D01*
X4421Y8128D01*
X4387Y7866D01*
X4286Y7622D01*
X4125Y7412D01*
X3915Y7251D01*
X3671Y7150D01*
X3409Y7115D01*
X3147Y7150D01*
X2902Y7251D01*
X2693Y7412D01*
X2532Y7622D01*
X2431Y7866D01*
X2396Y8128D01*
X2431Y8390D01*
X2532Y8634D01*
X2693Y8844D01*
X2902Y9005D01*
X3147Y9106D01*
X3409Y9141D01*
D02*
G37*
G36*
Y6601D02*
X3671Y6566D01*
X3915Y6465D01*
X4125Y6304D01*
X4286Y6094D01*
X4387Y5850D01*
X4421Y5588D01*
X4387Y5326D01*
X4286Y5082D01*
X4125Y4872D01*
X3915Y4711D01*
X3671Y4610D01*
X3409Y4575D01*
X3147Y4610D01*
X2902Y4711D01*
X2693Y4872D01*
X2532Y5082D01*
X2431Y5326D01*
X2396Y5588D01*
X2431Y5850D01*
X2532Y6094D01*
X2693Y6304D01*
X2902Y6465D01*
X3147Y6566D01*
X3409Y6601D01*
D02*
G37*
G36*
X27988Y18592D02*
X28250Y18558D01*
X28495Y18457D01*
X28704Y18296D01*
X28865Y18086D01*
X28967Y17842D01*
X29001Y17580D01*
X28967Y17317D01*
X28865Y17073D01*
X28704Y16864D01*
X28545Y16741D01*
X28519Y16588D01*
X41033Y4073D01*
X41214Y4148D01*
X41509Y4187D01*
X41804Y4148D01*
X42078Y4034D01*
X42314Y3853D01*
X42495Y3617D01*
X42609Y3343D01*
X42648Y3048D01*
X42609Y2753D01*
X42495Y2479D01*
X42314Y2243D01*
X42078Y2062D01*
X41804Y1948D01*
X41509Y1909D01*
X41214Y1948D01*
X40939Y2062D01*
X40704Y2243D01*
X40523Y2479D01*
X40409Y2753D01*
X40370Y3048D01*
X40409Y3343D01*
X40484Y3524D01*
X27714Y16294D01*
X27629Y16420D01*
X27600Y16568D01*
Y16654D01*
X27482Y16703D01*
X27272Y16864D01*
X27111Y17073D01*
X27010Y17317D01*
X26976Y17580D01*
X27010Y17842D01*
X27111Y18086D01*
X27272Y18296D01*
X27482Y18457D01*
X27726Y18558D01*
X27988Y18592D01*
D02*
G37*
G36*
X16998Y4107D02*
Y3226D01*
X16117D01*
X16135Y3364D01*
X16237Y3611D01*
X16400Y3823D01*
X16612Y3986D01*
X16860Y4089D01*
X16998Y4107D01*
D02*
G37*
G36*
X17252D02*
X17390Y4089D01*
X17637Y3986D01*
X17849Y3823D01*
X18012Y3611D01*
X18115Y3364D01*
X18133Y3226D01*
X17252D01*
Y4107D01*
D02*
G37*
G36*
X16117Y2972D02*
X16998D01*
Y2091D01*
X16860Y2109D01*
X16612Y2211D01*
X16400Y2374D01*
X16237Y2586D01*
X16135Y2834D01*
X16117Y2972D01*
D02*
G37*
G36*
X17252D02*
X18133D01*
X18115Y2834D01*
X18012Y2586D01*
X17849Y2374D01*
X17637Y2211D01*
X17390Y2109D01*
X17252Y2091D01*
Y2972D01*
D02*
G37*
G36*
X46589Y4187D02*
X46884Y4148D01*
X47158Y4034D01*
X47394Y3853D01*
X47575Y3617D01*
X47689Y3343D01*
X47728Y3048D01*
X47689Y2753D01*
X47575Y2479D01*
X47394Y2243D01*
X47158Y2062D01*
X46884Y1948D01*
X46589Y1909D01*
X46294Y1948D01*
X46019Y2062D01*
X45784Y2243D01*
X45603Y2479D01*
X45489Y2753D01*
X45450Y3048D01*
X45489Y3343D01*
X45603Y3617D01*
X45784Y3853D01*
X46019Y4034D01*
X46294Y4148D01*
X46589Y4187D01*
D02*
G37*
G36*
X58501Y2864D02*
X58855Y2818D01*
X59184Y2681D01*
X59467Y2464D01*
X59684Y2181D01*
X59821Y1852D01*
X59867Y1499D01*
X59821Y1145D01*
X59684Y816D01*
X59467Y533D01*
X59184Y316D01*
X58855Y179D01*
X58501Y133D01*
X58148Y179D01*
X57819Y316D01*
X57536Y533D01*
X57319Y816D01*
X57182Y1145D01*
X57136Y1499D01*
X57182Y1852D01*
X57319Y2181D01*
X57536Y2464D01*
X57819Y2681D01*
X58148Y2818D01*
X58501Y2864D01*
D02*
G37*
%LPD*%
G36*
X5882Y19800D02*
X5903Y19792D01*
X5922Y19779D01*
X5939Y19761D01*
X5953Y19739D01*
X5964Y19711D01*
X5973Y19678D01*
X5979Y19639D01*
X5983Y19596D01*
X5984Y19548D01*
X6238D01*
X6240Y19596D01*
X6243Y19639D01*
X6250Y19678D01*
X6259Y19711D01*
X6270Y19739D01*
X6284Y19761D01*
X6301Y19779D01*
X6320Y19792D01*
X6341Y19800D01*
X6365Y19802D01*
X5857D01*
X5882Y19800D01*
D02*
G37*
G36*
X5550Y18518D02*
X5542Y18496D01*
X5529Y18477D01*
X5511Y18461D01*
X5488Y18447D01*
X5460Y18435D01*
X5427Y18426D01*
X5388Y18420D01*
X5344Y18416D01*
X5295Y18415D01*
Y18161D01*
X5344Y18160D01*
X5388Y18156D01*
X5427Y18150D01*
X5460Y18141D01*
X5488Y18129D01*
X5511Y18115D01*
X5529Y18099D01*
X5542Y18080D01*
X5550Y18058D01*
X5552Y18034D01*
Y18542D01*
X5550Y18518D01*
D02*
G37*
G36*
X3944Y17763D02*
X4021Y17839D01*
X4167Y17966D01*
X4236Y18018D01*
X4303Y18062D01*
X4367Y18097D01*
X4429Y18125D01*
X4488Y18145D01*
X4544Y18157D01*
X4598Y18161D01*
Y18415D01*
X4544Y18419D01*
X4488Y18431D01*
X4429Y18451D01*
X4367Y18479D01*
X4303Y18514D01*
X4236Y18558D01*
X4167Y18610D01*
X4021Y18737D01*
X3944Y18813D01*
Y17763D01*
D02*
G37*
G36*
X35528Y21148D02*
X35513Y20914D01*
X35500Y20811D01*
X35482Y20718D01*
X35460Y20634D01*
X35434Y20560D01*
X35404Y20495D01*
X35369Y20440D01*
X35330Y20394D01*
X35510Y20215D01*
X35556Y20254D01*
X35611Y20288D01*
X35676Y20319D01*
X35750Y20345D01*
X35834Y20367D01*
X35927Y20385D01*
X36029Y20398D01*
X36263Y20412D01*
X36395Y20413D01*
X35528Y21279D01*
X35528Y21148D01*
D02*
G37*
G36*
X34582Y7039D02*
X34692Y7038D01*
X34889Y7025D01*
X34977Y7012D01*
X35056Y6996D01*
X35128Y6976D01*
X35192Y6952D01*
X35249Y6924D01*
X35298Y6892D01*
X35339Y6856D01*
X35519Y7036D01*
X35483Y7077D01*
X35451Y7126D01*
X35424Y7183D01*
X35399Y7247D01*
X35379Y7319D01*
X35363Y7399D01*
X35351Y7486D01*
X35337Y7683D01*
X35337Y7793D01*
X34582Y7039D01*
D02*
G37*
D12*
X22256Y3048D02*
X22205Y3099D01*
X23729Y3048D02*
X22256D01*
X14051Y20364D02*
X10081Y24334D01*
Y26554D01*
X6111Y30524D01*
Y18364D02*
Y20364D01*
X25075Y1702D02*
X23729Y3048D01*
X37978Y1851D02*
Y4397D01*
X37829Y1702D02*
X25075D01*
X37978Y1851D02*
X37829Y1702D01*
X36403Y21288D02*
X34394Y19279D01*
X16668D02*
X13137Y15748D01*
X34394Y19279D02*
X16668D01*
X13137Y15748D02*
X3409D01*
X37978Y4397D02*
X34575Y7801D01*
X6111Y18364D02*
X6035Y18288D01*
X3409D01*
X36429Y3048D02*
X29033D01*
X17905Y14176D01*
X41509Y3048D02*
X27988Y16568D01*
Y17580D01*
D20*
X6111Y20364D02*
D03*
D21*
Y22904D02*
D03*
Y25444D02*
D03*
Y27984D02*
D03*
Y30524D02*
D03*
Y33064D02*
D03*
Y35604D02*
D03*
Y38144D02*
D03*
X14051D02*
D03*
Y35604D02*
D03*
Y33064D02*
D03*
Y30524D02*
D03*
Y27984D02*
D03*
Y25444D02*
D03*
Y22904D02*
D03*
Y20364D02*
D03*
D22*
X46589Y3048D02*
D03*
X41509D02*
D03*
X36429D02*
D03*
X46589Y18748D02*
D03*
X41509D02*
D03*
X36429D02*
D03*
D23*
X34575Y7801D02*
D03*
Y14024D02*
D03*
X22205Y3099D02*
D03*
X17125D02*
D03*
X58527Y38506D02*
D03*
X58501Y1499D02*
D03*
X1529D02*
D03*
X1555Y38506D02*
D03*
D24*
X27988Y17580D02*
D03*
X17988D02*
D03*
X27988Y10950D02*
D03*
X17988D02*
D03*
X17905Y14176D02*
D03*
X27905D02*
D03*
X3409Y3048D02*
D03*
Y5588D02*
D03*
Y8128D02*
D03*
Y10668D02*
D03*
Y13208D02*
D03*
Y15748D02*
D03*
Y18288D02*
D03*
Y20828D02*
D03*
Y23368D02*
D03*
Y25908D02*
D03*
Y28448D02*
D03*
Y30988D02*
D03*
Y33528D02*
D03*
D25*
X44023Y21288D02*
D03*
X41483D02*
D03*
X38943D02*
D03*
X26243D02*
D03*
X28783D02*
D03*
X31323D02*
D03*
X33863D02*
D03*
X36403D02*
D03*
D26*
X3409Y36068D02*
D03*
M02*
