G04*
G04 #@! TF.GenerationSoftware,Altium Limited,Altium Designer,20.2.6 (244)*
G04*
G04 Layer_Color=128*
%FSLAX43Y43*%
%MOMM*%
G71*
G04*
G04 #@! TF.SameCoordinates,70A9E041-225B-441C-BFEB-4F53169E124C*
G04*
G04*
G04 #@! TF.FilePolarity,Positive*
G04*
G01*
G75*
%ADD29C,0.051*%
D29*
X53574Y20364D02*
X54304D01*
X53939Y19999D02*
Y20729D01*
X53574Y22904D02*
X54304D01*
X53939Y22539D02*
Y23269D01*
X53574Y25444D02*
X54304D01*
X53939Y25079D02*
Y25809D01*
X53574Y27984D02*
X54304D01*
X53939Y27619D02*
Y28349D01*
X53574Y30524D02*
X54304D01*
X53939Y30159D02*
Y30889D01*
X53574Y33064D02*
X54304D01*
X53939Y32699D02*
Y33429D01*
X53574Y35604D02*
X54304D01*
X53939Y35239D02*
Y35969D01*
X53574Y38144D02*
X54304D01*
X53939Y37779D02*
Y38509D01*
X45634Y38144D02*
X46364D01*
X45999Y37779D02*
Y38509D01*
X45634Y35604D02*
X46364D01*
X45999Y35239D02*
Y35969D01*
X45634Y33064D02*
X46364D01*
X45999Y32699D02*
Y33429D01*
X45634Y30524D02*
X46364D01*
X45999Y30159D02*
Y30889D01*
X45634Y27984D02*
X46364D01*
X45999Y27619D02*
Y28349D01*
X45634Y25444D02*
X46364D01*
X45999Y25079D02*
Y25809D01*
X45634Y22904D02*
X46364D01*
X45999Y22539D02*
Y23269D01*
X45634Y20364D02*
X46364D01*
X45999Y19999D02*
Y20729D01*
X13012Y3048D02*
X13912D01*
X13462Y2598D02*
Y3498D01*
X18092Y3048D02*
X18992D01*
X18542Y2598D02*
Y3498D01*
X23172Y3048D02*
X24072D01*
X23622Y2598D02*
Y3498D01*
X13012Y18748D02*
X13912D01*
X13462Y18298D02*
Y19198D01*
X18092Y18748D02*
X18992D01*
X18542Y18298D02*
Y19198D01*
X25095Y7801D02*
X25857D01*
X25476Y7420D02*
Y8182D01*
X25095Y14024D02*
X25857D01*
X25476Y13643D02*
Y14405D01*
X23172Y18748D02*
X24072D01*
X23622Y18298D02*
Y19198D01*
X37465Y3099D02*
X38227D01*
X37846Y2718D02*
Y3480D01*
X42545Y3099D02*
X43307D01*
X42926Y2718D02*
Y3480D01*
X31762Y17580D02*
X32362D01*
X32062Y17280D02*
Y17880D01*
X41762Y17580D02*
X42362D01*
X42062Y17280D02*
Y17880D01*
X31762Y10950D02*
X32362D01*
X32062Y10650D02*
Y11250D01*
X41762Y10950D02*
X42362D01*
X42062Y10650D02*
Y11250D01*
X41846Y14176D02*
X42446D01*
X42146Y13876D02*
Y14476D01*
X31846Y14176D02*
X32446D01*
X32146Y13876D02*
Y14476D01*
X424Y38506D02*
X2624D01*
X1524Y37406D02*
Y39606D01*
X449Y1499D02*
X2649D01*
X1549Y399D02*
Y2599D01*
X57422Y1499D02*
X59622D01*
X58522Y399D02*
Y2599D01*
X57396Y38506D02*
X59596D01*
X58496Y37406D02*
Y39606D01*
X15527Y21288D02*
X16527D01*
X16027Y20788D02*
Y21788D01*
X18067Y21288D02*
X19067D01*
X18567Y20788D02*
Y21788D01*
X20607Y21288D02*
X21607D01*
X21107Y20788D02*
Y21788D01*
X33307Y21288D02*
X34307D01*
X33807Y20788D02*
Y21788D01*
X30767Y21288D02*
X31767D01*
X31267Y20788D02*
Y21788D01*
X28227Y21288D02*
X29227D01*
X28727Y20788D02*
Y21788D01*
X25687Y21288D02*
X26687D01*
X26187Y20788D02*
Y21788D01*
X23147Y21288D02*
X24147D01*
X23647Y20788D02*
Y21788D01*
X56192Y3048D02*
X57092D01*
X56642Y2598D02*
Y3498D01*
X56192Y5588D02*
X57092D01*
X56642Y5138D02*
Y6038D01*
X56192Y8128D02*
X57092D01*
X56642Y7678D02*
Y8578D01*
X56192Y10668D02*
X57092D01*
X56642Y10218D02*
Y11118D01*
X56192Y13208D02*
X57092D01*
X56642Y12758D02*
Y13658D01*
X56192Y15748D02*
X57092D01*
X56642Y15298D02*
Y16198D01*
X56192Y18288D02*
X57092D01*
X56642Y17838D02*
Y18738D01*
X56192Y20828D02*
X57092D01*
X56642Y20378D02*
Y21278D01*
X56192Y23368D02*
X57092D01*
X56642Y22918D02*
Y23818D01*
X56192Y25908D02*
X57092D01*
X56642Y25458D02*
Y26358D01*
X56192Y28448D02*
X57092D01*
X56642Y27998D02*
Y28898D01*
X56192Y30988D02*
X57092D01*
X56642Y30538D02*
Y31438D01*
X56192Y33528D02*
X57092D01*
X56642Y33078D02*
Y33978D01*
X56192Y36068D02*
X57092D01*
X56642Y35618D02*
Y36518D01*
M02*
