M48
;Layer_Color=9474304
;FILE_FORMAT=4:3
METRIC,LZ
;TYPE=PLATED
T1F00S00C0.600
T2F00S00C0.730
T3F00S00C0.762
T4F00S00C0.900
T5F00S00C1.000
T6F00S00C2.200
%
T01
X0032062Y001095
X0032146Y0014176
X0042146
X0042062Y001095
Y001758
X0032062
T02
X0045999Y0020364
Y0022904
Y0025444
Y0027984
Y0030524
Y0033064
Y0035604
Y0038144
X0053939
Y0035604
Y0033064
Y0030524
Y0027984
Y0025444
Y0022904
Y0020364
T03
X0025476Y0007801
Y0014024
X0037846Y0003099
X0042926
T04
X0013462Y0003048
X0018542
X0023622
X0056642
Y0005588
Y0008128
Y0010668
Y0013208
Y0015748
Y0018288
Y0020828
Y0023368
Y0025908
Y0028448
Y0030988
Y0033528
Y0036068
X0023622Y0018748
X0018542
X0013462
T05
X0016027Y0021288
X0018567
X0021107
X0023647
X0026187
X0028727
X0031267
X0033807
T06
X0001549Y0001499
X0058522
X0058496Y0038506
X0001524
M30
